<svg aria-hidden="true" style="position: absolute; width: 0; height: 0; overflow: hidden;" version="1.1" xmlns="http://www.w3.org/2000/svg" xmlns:xlink="http://www.w3.org/1999/xlink">
    <defs>
        <symbol id="icon-language" viewBox="0 0 32 32">
<path d="M16 27.334c1.231 0 2.686-0.842 3.942-2.934 0.367-0.612 0.698-1.305 0.982-2.066h-9.848c0.284 0.761 0.615 1.454 0.982 2.066 1.255 2.092 2.711 2.934 3.942 2.934zM10.479 20.334h11.042c0.306-1.326 0.479-2.786 0.479-4.333s-0.173-3.008-0.479-4.333h-11.042c-0.306 1.325-0.479 2.786-0.479 4.333s0.173 3.008 0.479 4.333zM23.042 22.334c-0.456 1.406-1.060 2.661-1.776 3.705 1.666-0.876 3.087-2.154 4.135-3.705h-2.358zM26.476 20.334c0.553-1.335 0.858-2.799 0.858-4.333s-0.305-2.998-0.858-4.333h-2.907c0.28 1.359 0.432 2.816 0.432 4.333s-0.152 2.975-0.432 4.333h2.907zM8.432 20.334c-0.28-1.359-0.432-2.816-0.432-4.333s0.152-2.975 0.432-4.333h-2.907c-0.553 1.335-0.858 2.799-0.858 4.333s0.305 2.998 0.858 4.333h2.907zM6.601 22.334c1.047 1.551 2.469 2.83 4.135 3.705-0.716-1.044-1.32-2.299-1.776-3.705h-2.358zM11.076 9.667h9.848c-0.284-0.761-0.615-1.454-0.982-2.066-1.256-2.092-2.711-2.934-3.942-2.934s-2.686 0.842-3.942 2.934c-0.367 0.612-0.698 1.305-0.982 2.066zM23.042 9.667h2.358c-1.047-1.551-2.469-2.83-4.135-3.705 0.716 1.045 1.32 2.299 1.776 3.705zM10.735 5.962c-1.666 0.876-3.087 2.154-4.135 3.705h2.358c0.456-1.406 1.060-2.661 1.776-3.705zM16 2.667c7.364 0 13.333 5.97 13.333 13.333s-5.97 13.333-13.333 13.333c-7.364 0-13.333-5.97-13.333-13.333s5.97-13.333 13.333-13.333z"></path>
</symbol>
        <symbol id="icon-searchWhite" viewBox="0 0 32 32">
<path fill="#fff" style="fill: var(--color1, #fff)" d="M22 14c0-4.418-3.582-8-8-8s-8 3.582-8 8c0 4.418 3.582 8 8 8s8-3.582 8-8zM24 14c0 5.523-4.477 10-10 10s-10-4.477-10-10c0-5.523 4.477-10 10-10s10 4.477 10 10zM21.96 23.374l-0.684-0.684c0.512-0.429 0.985-0.902 1.414-1.414l4.684 4.684c0.391 0.391 0.391 1.024 0 1.414s-1.024 0.391-1.414 0l-4-4z"></path>
</symbol>
<symbol id="icon-search" viewBox="0 0 32 32">
<path fill="#707070" style="fill: var(--color2, #707070)" d="M22 14c0-4.418-3.582-8-8-8s-8 3.582-8 8c0 4.418 3.582 8 8 8s8-3.582 8-8zM24 14c0 5.523-4.477 10-10 10s-10-4.477-10-10c0-5.523 4.477-10 10-10s10 4.477 10 10zM21.96 23.374l-0.684-0.684c0.512-0.429 0.985-0.902 1.414-1.414l4.684 4.684c0.391 0.391 0.391 1.024 0 1.414s-1.024 0.391-1.414 0l-4-4z"></path>
</symbol>
<symbol id="icon-mainSvg" viewBox="0 0 89 32">
<path fill="#f64060" style="fill: var(--color3, #f64060)" d="M88.786 18.693c-0.012-0.126-0.042-0.249-0.088-0.366-0.296-0.77-1.643-0.052-2.103 0.141-0.828 0.347-1.775 0.805-2.692 0.542-0.254-0.073-0.179-0.289 0-0.399 0.090-0.054 2.444-1.386 3.136-4.338 1.109-4.722-2.293-6.036-3.636-6.195-1.365-0.162-2.887 0.049-3.528 0.307-1.818 0.73-2.293 2.354-2.418 3.327-0.172 1.338-0.192 3.672-0.358 4.722-0.109 0.692-0.624 1.742-1.638 1.642-1.957-0.193-2.856-0.944-2.794-2.178 0.043-0.867 0.031-1.040 0.304-2.963 0.234-1.648 0.382-2.041 0.382-2.418 0-1.079-1.45-1.297-1.935-0.811-0.374 0.375-0.468 1.141-0.562 2.433-0.088 1.215-0.274 2.796-0.515 3.76-0.374 1.502-0.525 1.611-0.866 2.041-0.709 0.893-2.021 0.616-2.661 0.007-0.376-0.358-0.427-0.676-0.354-1.728s0.245-2.885 0.486-4.796c0.21-1.672 0.066-1.923-0.448-2.392-0.478-0.437-2.307-0.372-3.154-0.372-1.311 0-1.233 0.624-1.319 2.752-0.038 0.929-0.081 2.338-0.174 3.429-0.15 1.776-3.54 3.112-5.098 3.032-1.615-0.083-1.77-3.098-1.872-3.8-0.103-0.701-0.144-6.752 0.030-6.957 0.124-0.144 1.096-0.254 2.204-0.471 2.453-0.48 2.806-0.795 2.809-1.563 0.002-0.377-0.022-0.904-0.44-1.046-0.245-0.083-0.88-0.178-1.722-0.277-2.429-0.286-2.772-0.198-2.785-0.506-0.023-0.539 0.028-1.577-0.015-1.985-0.106-1.005-1.283-1.342-2.609-1.254-0.262 0.017-0.624 0.102-0.653 0.452s-0.026 0.622-0.069 1.216c-0.094 1.321-0.12 1.464-0.632 1.462-0.456-0.002-4.249-0.338-4.978-0.104s-0.7 0.73-0.758 0.979c-0.058 0.248 0.072 1.738 0.146 2.381s0.214 1.517 0.301 1.648c0.088 0.132 0.361 0.505 1.123 0.41 2.587-0.324 4.312-0.715 4.663-0.802s0.39-0.132 0.394 0.146c0.002 0.158 0.067 3.317 0.078 4.255 0.018 1.605 0.29 6.253-4.035 6.974-1.799 0.3-3.485-0.224-4.252-1.070-0.435-0.48-0.222-0.542-0.030-0.854 0.291-0.474 2.721-3.329 0.685-6.291-1.201-1.747-4.080-1.885-5.126-1.432-0.81 0.351-1.465 1.44-1.592 2.768-0.39 4.096 1.953 6.629 2.045 6.785 0.109 0.187-0.301 0.79-1.733 1-1.92 0.282-4.867-2.034-4.792-2.336 0.038-0.144 1.343-2.282 1.374-4.349 0.010-0.703-0.222-1.629-0.702-2.564s-1.997-2.378-3.636-2.061c-3.859 0.744-3.419 4.557-3.152 5.597 0.555 2.152 1.855 4.051 2.067 4.431 0.289 0.516-8.165 3.871-8.492 0.73-0.326-3.113 4.296-9.827 3.932-12.431-0.328-2.346-1.905-2.837-3.277-2.861-1.333-0.024-1.685 0.189-2.137 0.451-0.26 0.151-0.634 0.45-1.152-0.044-0.345-0.329-0.573-0.559-0.938-0.851-0.185-0.148-0.481-0.336-0.977-0.409s-1.137 0-1.546 0.175c-0.408 0.176-0.729 0.482-1.065 0.774s-1.186 1.247-1.979 0.895c-0.344-0.153-1.509-0.736-2.349-1.1-1.623-0.704-3.964 0.436-4.806 1.937-1.255 2.233-3.731 11.007-4.105 12.164-0.842 2.598 1.064 4.717 3.636 4.595 1.086-0.052 1.81-0.45 2.497-1.701 0.397-0.722 4.124-10.477 4.401-10.944 0.201-0.34 0.872-0.787 1.44-0.496 0.569 0.293 0.682 0.902 0.598 1.476-0.136 0.928-2.764 6.88-2.865 7.552-0.172 1.145 0.371 1.782 1.557 1.845 0.813 0.042 1.623-0.25 2.266-1.465 0.36-0.679 4.504-8.998 4.872-9.553 0.403-0.61 0.728-0.81 1.137-0.789 0.319 0.016 0.829 0.098 0.701 1.055-0.125 0.938-3.457 7.042-3.808 8.536-0.53 2.267 0.921 5.316 4.808 5.456 1.931 0.070 6.401-0.773 8.919-2.685 0.914-0.694 0.673-0.754 1.242-0.249 0.82 0.727 2.341 1.751 3.84 1.751 3.402 0 5.887-2.128 5.999-2.205 0.018-0.012 0.039-0.017 0.061-0.015s0.041 0.013 0.055 0.029c0.206 0.224 2.316 1.401 3.794 1.45 3.519 0.116 5.603-1.84 6.39-2.761 0.433-0.507 0.837-1.037 1.209-1.589 0.011-0.016 0.025-0.029 0.041-0.038s0.035-0.015 0.054-0.017 0.038 0.002 0.056 0.009c0.018 0.007 0.033 0.018 0.046 0.032 0.21 0.232 1.797 3.153 4.95 2.75 1.758-0.225 4.373-1.711 4.556-1.912 0.009-0.011 0.021-0.018 0.035-0.023s0.028-0.005 0.041-0.003c0.014 0.003 0.027 0.009 0.037 0.019s0.018 0.021 0.023 0.035c0.092 0.254 0.494 1.688 2.106 2.828 1.321 0.935 3.865 1.122 4.994 0.501 0.936-0.515 1.311-0.845 1.966-1.501 0.282-0.282 0.71-0.568 1.483-0.404 0.864 0.183 3.147 0.588 3.292 0.657 0.164 0.078 0.19 0.376 0.141 0.688-0.078 0.491-0.264 2.213-0.453 3.82s-0.795 6.969 0.64 7.168c0.867 0.12 1.62-0.702 1.819-1.505 0.499-2.013 0.59-4.28 0.918-6.224 0.392-2.314 0.547-2.963 0.688-3.221 0.117-0.214 0.117-0.164 1.733-0.026 1.12 0.096 2.029 0.252 3.378 0.063 1.118-0.157 3.413-1.005 3.29-2.381zM32.874 13.492c-0.054 0.758-0.248 1.237-0.649 1.935-0.25 0.435-0.509 0.11-0.66-0.106-0.216-0.309-1.32-2.995-0.477-3.549 0.238-0.156 0.709-0.246 1.050-0.054s0.546 0.468 0.64 0.777c0.096 0.314 0.131 0.49 0.096 0.997zM43.347 13.882c-0.098 0.872-0.468 1.366-0.604 1.549-0.241 0.323-0.338 0.45-0.568 0.216-0.187-0.19-0.887-1.616-0.988-2.556-0.055-0.505 0.085-1.228 0.509-1.397 0.446-0.178 0.898-0.098 1.216 0.318 0.498 0.654 0.505 1.251 0.435 1.871zM81.351 17.704c-0.526 0.216-0.754 0.084-0.724-0.785 0.006-0.187 0.85-4.549 2.464-5.34 0.457-0.224 0.921-0.214 1.243 0.144 0.608 0.678 0.448 1.722-0.010 2.673-0.662 1.382-2.251 3.011-2.973 3.308z"></path>
</symbol>
    </defs>
</svg>