<svg aria-hidden="true" style="position: absolute; width: 0; height: 0; overflow: hidden;" version="1.1" xmlns="http://www.w3.org/2000/svg" xmlns:xlink="http://www.w3.org/1999/xlink">
    <defs>
        <symbol id="icon-language" viewBox="0 0 32 32">
<path d="M16 27.334c1.231 0 2.686-0.842 3.942-2.934 0.367-0.612 0.698-1.305 0.982-2.066h-9.848c0.284 0.761 0.615 1.454 0.982 2.066 1.255 2.092 2.711 2.934 3.942 2.934zM10.479 20.334h11.042c0.306-1.326 0.479-2.786 0.479-4.333s-0.173-3.008-0.479-4.333h-11.042c-0.306 1.325-0.479 2.786-0.479 4.333s0.173 3.008 0.479 4.333zM23.042 22.334c-0.456 1.406-1.060 2.661-1.776 3.705 1.666-0.876 3.087-2.154 4.135-3.705h-2.358zM26.476 20.334c0.553-1.335 0.858-2.799 0.858-4.333s-0.305-2.998-0.858-4.333h-2.907c0.28 1.359 0.432 2.816 0.432 4.333s-0.152 2.975-0.432 4.333h2.907zM8.432 20.334c-0.28-1.359-0.432-2.816-0.432-4.333s0.152-2.975 0.432-4.333h-2.907c-0.553 1.335-0.858 2.799-0.858 4.333s0.305 2.998 0.858 4.333h2.907zM6.601 22.334c1.047 1.551 2.469 2.83 4.135 3.705-0.716-1.044-1.32-2.299-1.776-3.705h-2.358zM11.076 9.667h9.848c-0.284-0.761-0.615-1.454-0.982-2.066-1.256-2.092-2.711-2.934-3.942-2.934s-2.686 0.842-3.942 2.934c-0.367 0.612-0.698 1.305-0.982 2.066zM23.042 9.667h2.358c-1.047-1.551-2.469-2.83-4.135-3.705 0.716 1.045 1.32 2.299 1.776 3.705zM10.735 5.962c-1.666 0.876-3.087 2.154-4.135 3.705h2.358c0.456-1.406 1.060-2.661 1.776-3.705zM16 2.667c7.364 0 13.333 5.97 13.333 13.333s-5.97 13.333-13.333 13.333c-7.364 0-13.333-5.97-13.333-13.333s5.97-13.333 13.333-13.333z"></path>
</symbol>
        <symbol id="icon-searchWhite" viewBox="0 0 32 32">
<path fill="#fff" style="fill: var(--color1, #fff)" d="M22 14c0-4.418-3.582-8-8-8s-8 3.582-8 8c0 4.418 3.582 8 8 8s8-3.582 8-8zM24 14c0 5.523-4.477 10-10 10s-10-4.477-10-10c0-5.523 4.477-10 10-10s10 4.477 10 10zM21.96 23.374l-0.684-0.684c0.512-0.429 0.985-0.902 1.414-1.414l4.684 4.684c0.391 0.391 0.391 1.024 0 1.414s-1.024 0.391-1.414 0l-4-4z"></path>
</symbol>
<symbol id="icon-search" viewBox="0 0 32 32">
<path fill="#707070" style="fill: var(--color2, #707070)" d="M22 14c0-4.418-3.582-8-8-8s-8 3.582-8 8c0 4.418 3.582 8 8 8s8-3.582 8-8zM24 14c0 5.523-4.477 10-10 10s-10-4.477-10-10c0-5.523 4.477-10 10-10s10 4.477 10 10zM21.96 23.374l-0.684-0.684c0.512-0.429 0.985-0.902 1.414-1.414l4.684 4.684c0.391 0.391 0.391 1.024 0 1.414s-1.024 0.391-1.414 0l-4-4z"></path>
</symbol>
<symbol id="icon-mainSvg" viewBox="0 0 89 32">
<path fill="#f64060" style="fill: var(--color3, #f64060)" d="M88.786 18.693c-0.012-0.126-0.042-0.249-0.088-0.366-0.296-0.77-1.643-0.052-2.103 0.141-0.828 0.347-1.775 0.805-2.692 0.542-0.254-0.073-0.179-0.289 0-0.399 0.090-0.054 2.444-1.386 3.136-4.338 1.109-4.722-2.293-6.036-3.636-6.195-1.365-0.162-2.887 0.049-3.528 0.307-1.818 0.73-2.293 2.354-2.418 3.327-0.172 1.338-0.192 3.672-0.358 4.722-0.109 0.692-0.624 1.742-1.638 1.642-1.957-0.193-2.856-0.944-2.794-2.178 0.043-0.867 0.031-1.040 0.304-2.963 0.234-1.648 0.382-2.041 0.382-2.418 0-1.079-1.45-1.297-1.935-0.811-0.374 0.375-0.468 1.141-0.562 2.433-0.088 1.215-0.274 2.796-0.515 3.76-0.374 1.502-0.525 1.611-0.866 2.041-0.709 0.893-2.021 0.616-2.661 0.007-0.376-0.358-0.427-0.676-0.354-1.728s0.245-2.885 0.486-4.796c0.21-1.672 0.066-1.923-0.448-2.392-0.478-0.437-2.307-0.372-3.154-0.372-1.311 0-1.233 0.624-1.319 2.752-0.038 0.929-0.081 2.338-0.174 3.429-0.15 1.776-3.54 3.112-5.098 3.032-1.615-0.083-1.77-3.098-1.872-3.8-0.103-0.701-0.144-6.752 0.030-6.957 0.124-0.144 1.096-0.254 2.204-0.471 2.453-0.48 2.806-0.795 2.809-1.563 0.002-0.377-0.022-0.904-0.44-1.046-0.245-0.083-0.88-0.178-1.722-0.277-2.429-0.286-2.772-0.198-2.785-0.506-0.023-0.539 0.028-1.577-0.015-1.985-0.106-1.005-1.283-1.342-2.609-1.254-0.262 0.017-0.624 0.102-0.653 0.452s-0.026 0.622-0.069 1.216c-0.094 1.321-0.12 1.464-0.632 1.462-0.456-0.002-4.249-0.338-4.978-0.104s-0.7 0.73-0.758 0.979c-0.058 0.248 0.072 1.738 0.146 2.381s0.214 1.517 0.301 1.648c0.088 0.132 0.361 0.505 1.123 0.41 2.587-0.324 4.312-0.715 4.663-0.802s0.39-0.132 0.394 0.146c0.002 0.158 0.067 3.317 0.078 4.255 0.018 1.605 0.29 6.253-4.035 6.974-1.799 0.3-3.485-0.224-4.252-1.070-0.435-0.48-0.222-0.542-0.030-0.854 0.291-0.474 2.721-3.329 0.685-6.291-1.201-1.747-4.080-1.885-5.126-1.432-0.81 0.351-1.465 1.44-1.592 2.768-0.39 4.096 1.953 6.629 2.045 6.785 0.109 0.187-0.301 0.79-1.733 1-1.92 0.282-4.867-2.034-4.792-2.336 0.038-0.144 1.343-2.282 1.374-4.349 0.010-0.703-0.222-1.629-0.702-2.564s-1.997-2.378-3.636-2.061c-3.859 0.744-3.419 4.557-3.152 5.597 0.555 2.152 1.855 4.051 2.067 4.431 0.289 0.516-8.165 3.871-8.492 0.73-0.326-3.113 4.296-9.827 3.932-12.431-0.328-2.346-1.905-2.837-3.277-2.861-1.333-0.024-1.685 0.189-2.137 0.451-0.26 0.151-0.634 0.45-1.152-0.044-0.345-0.329-0.573-0.559-0.938-0.851-0.185-0.148-0.481-0.336-0.977-0.409s-1.137 0-1.546 0.175c-0.408 0.176-0.729 0.482-1.065 0.774s-1.186 1.247-1.979 0.895c-0.344-0.153-1.509-0.736-2.349-1.1-1.623-0.704-3.964 0.436-4.806 1.937-1.255 2.233-3.731 11.007-4.105 12.164-0.842 2.598 1.064 4.717 3.636 4.595 1.086-0.052 1.81-0.45 2.497-1.701 0.397-0.722 4.124-10.477 4.401-10.944 0.201-0.34 0.872-0.787 1.44-0.496 0.569 0.293 0.682 0.902 0.598 1.476-0.136 0.928-2.764 6.88-2.865 7.552-0.172 1.145 0.371 1.782 1.557 1.845 0.813 0.042 1.623-0.25 2.266-1.465 0.36-0.679 4.504-8.998 4.872-9.553 0.403-0.61 0.728-0.81 1.137-0.789 0.319 0.016 0.829 0.098 0.701 1.055-0.125 0.938-3.457 7.042-3.808 8.536-0.53 2.267 0.921 5.316 4.808 5.456 1.931 0.070 6.401-0.773 8.919-2.685 0.914-0.694 0.673-0.754 1.242-0.249 0.82 0.727 2.341 1.751 3.84 1.751 3.402 0 5.887-2.128 5.999-2.205 0.018-0.012 0.039-0.017 0.061-0.015s0.041 0.013 0.055 0.029c0.206 0.224 2.316 1.401 3.794 1.45 3.519 0.116 5.603-1.84 6.39-2.761 0.433-0.507 0.837-1.037 1.209-1.589 0.011-0.016 0.025-0.029 0.041-0.038s0.035-0.015 0.054-0.017 0.038 0.002 0.056 0.009c0.018 0.007 0.033 0.018 0.046 0.032 0.21 0.232 1.797 3.153 4.95 2.75 1.758-0.225 4.373-1.711 4.556-1.912 0.009-0.011 0.021-0.018 0.035-0.023s0.028-0.005 0.041-0.003c0.014 0.003 0.027 0.009 0.037 0.019s0.018 0.021 0.023 0.035c0.092 0.254 0.494 1.688 2.106 2.828 1.321 0.935 3.865 1.122 4.994 0.501 0.936-0.515 1.311-0.845 1.966-1.501 0.282-0.282 0.71-0.568 1.483-0.404 0.864 0.183 3.147 0.588 3.292 0.657 0.164 0.078 0.19 0.376 0.141 0.688-0.078 0.491-0.264 2.213-0.453 3.82s-0.795 6.969 0.64 7.168c0.867 0.12 1.62-0.702 1.819-1.505 0.499-2.013 0.59-4.28 0.918-6.224 0.392-2.314 0.547-2.963 0.688-3.221 0.117-0.214 0.117-0.164 1.733-0.026 1.12 0.096 2.029 0.252 3.378 0.063 1.118-0.157 3.413-1.005 3.29-2.381zM32.874 13.492c-0.054 0.758-0.248 1.237-0.649 1.935-0.25 0.435-0.509 0.11-0.66-0.106-0.216-0.309-1.32-2.995-0.477-3.549 0.238-0.156 0.709-0.246 1.050-0.054s0.546 0.468 0.64 0.777c0.096 0.314 0.131 0.49 0.096 0.997zM43.347 13.882c-0.098 0.872-0.468 1.366-0.604 1.549-0.241 0.323-0.338 0.45-0.568 0.216-0.187-0.19-0.887-1.616-0.988-2.556-0.055-0.505 0.085-1.228 0.509-1.397 0.446-0.178 0.898-0.098 1.216 0.318 0.498 0.654 0.505 1.251 0.435 1.871zM81.351 17.704c-0.526 0.216-0.754 0.084-0.724-0.785 0.006-0.187 0.85-4.549 2.464-5.34 0.457-0.224 0.921-0.214 1.243 0.144 0.608 0.678 0.448 1.722-0.010 2.673-0.662 1.382-2.251 3.011-2.973 3.308z"></path>
</symbol>
<symbol id="irl_event" viewBox="0 0 379 269" fill="none">
            <g stroke="var(--color0, #00455d)" stroke-linejoin="round" clip-path="url(#clip0_2_1945)" clip-rule="evenodd">
                <mask id="mask0_2_1945" style="mask-type:luminance" stroke="none" stroke-linejoin="miter" width="379" height="269" maskUnits="userSpaceOnUse">
                    <path fill="#fff" d="M0 0h378.842v269H0z"></path>
                </mask>
                <g stroke="none" stroke-linejoin="miter" mask="url(#mask0_2_1945)">
                    <g opacity="0.212">
                        <path fill="var(--color8, #e6a386)" clip-rule="evenodd" d="M300.165 196.605c-8.022 13.579-17.061 23.199-28.232 31.023-8.177 5.729-16.944 10.259-26.243 13.651-9.525 3.472-19.412 5.892-29.491 7.422-14.636 2.222-29.335 3.051-44.161 2.396-16.487-0.727-32.461-3.869-47.662-10.293-5.581-2.36-11.162-5.015-15.987-8.918-3.65-2.953-7.805-5.367-11.0989-8.654-4.792-4.78-9.357-9.879-13.404-15.296-8.142-10.891-12.796-23.303-14.465-36.716-0.915-7.339-1.859-14.744-1.812-22.107 0.051-7.638 1.199-15.269 2.025-22.886 0.697-6.451 1.505-12.892 2.475-19.306 1.419-9.378 2.461-18.865 4.69-28.053 2.838-11.701 5.761-23.499 12.022-34.017 6.068-10.197 13.8809-18.893 24.2739-24.752 9.099-5.129 19.111-7.318 29.733-7.168 11.735 0.164 22.372 3.931 32.289 9.611 7.244 4.149 13.887 9.343 20.051 15.074 5.079 4.72 10.094 9.56 15.576 13.778 5.771 4.441 11.538 8.982 18.151 12.233l28.074 13.966c8.169 4.193 15.642 9.454 22.779 15.235 5.855 4.741 10.86 10.257 15.021 16.43 7.823 11.608 13.605 24.013 14.739 38.248 0.675 8.464 1.072 16.86-0.812 25.17-0.917 4.049-2.021 8.087-3.456 11.974-1.747 4.733-3.932 9.301-5.075 11.956z" fill-rule="evenodd"></path>
                    </g>
                </g>
                <path stroke-width="3.934" stroke="var(--color6, #fa6666)" d="M304.349 175.292H96.4616l-31.029 37.382H277.791z"></path>
                <path stroke-width="3.934" stroke="var(--color6, #fa6666)" stroke-linecap="round" d="M104.748 175.292l11.089 36.372M157.169 175.292l12.097 39.403M209.589 175.292l14.113 39.403M264.026 175.292l11.089 37.382"></path>
                <path stroke-width="7.868" stroke="var(--color6, #fa6666)" stroke-linecap="round" d="M290.235 153.065l44.356 61.63"></path>
                <path stroke-width="1.868" stroke-linecap="round" d="M294.248 169.23h6.3c5.439 0 9.849-2.575 9.849-7.839s-4.41-9.337-9.849-9.337h-15.353"></path>
                <path stroke-width="1.868" stroke-linecap="round" d="M294.074 151.044h-2.316-6.563l44.979 61.5c0 0 2.124 4.532 4.44 2.743s0.193-4.471-2.703-7.92-39.801-55.923-39.801-55.923"></path>
                <path stroke-width="1.868" stroke-linecap="round" d="M306.366 180.036l-27.52 37.434H66.2306c-4.187-0.576-2.463-3.189-2.463-3.189l32.762-41.01H301.546"></path>
                <path stroke-width="1.868" d="M299.308 178.323h-30.243l8.803 31.32zM215.637 178.323l9.733 32.331h46.72l-9.247-32.331zM161.2 178.323l10.425 32.074 47.036 0.257-10.425-32.331z"></path>
                <path stroke-width="1.868" stroke="var(--color2, #353e48)" d="M107.772 178.323l10.112 32.331h47.349l-10.111-32.331z"></path>
                <path stroke-width="1.705" d="M70.4727 212.674l26.574-34.351h5.2573l9.501 34.351z"></path>
                <path stroke-width="1.868" fill="var(--color6, #fa6666)" d="M99.7076 215.2c0 19.809-15.797 35.867-35.283 35.867s-35.283-16.058-35.283-35.867 15.797-35.867 35.283-35.867 35.283 16.058 35.283 35.867zM369.875 215.2c0 19.809-15.797 35.867-35.283 35.867s-35.283-16.058-35.283-35.867 15.797-35.867 35.283-35.867 35.283 16.058 35.283 35.867z" fill-rule="evenodd"></path>
                <path stroke-width="1.868" d="M78.5372 214.695c0 7.254-5.8671 13.134-13.1051 13.134s-13.105-5.88-13.105-13.134 5.868-13.134 13.105-13.134 13.1051 5.88 13.1051 13.134z"></path>
                <path stroke="none" fill="var(--color1, #97cad1)" d="M124.91 214.19c2e-3 2.542-1.005 4.982-2.801 6.782-1.796 1.799-4.233 2.812-6.776 2.816-2.545 0-4.986-1.011-6.786-2.811s-2.812-4.242-2.812-6.787c0-2.546 1.012-4.987 2.812-6.787s4.241-2.811 6.786-2.811c2.543 3e-3 4.98 1.016 6.776 2.816s2.803 4.239 2.801 6.782z"></path>
                <path stroke-width="1.868" d="M124.91 214.19c2e-3 2.542-1.005 4.982-2.801 6.782-1.796 1.799-4.233 2.812-6.776 2.816-2.545 0-4.986-1.011-6.786-2.811s-2.812-4.242-2.812-6.787c0-2.546 1.012-4.987 2.812-6.787s4.241-2.811 6.786-2.811c2.543 3e-3 4.98 1.016 6.776 2.816s2.803 4.239 2.801 6.782z"></path>
                <path stroke="none" fill="var(--color1, #97cad1)" d="M179.347 214.19c2e-3 2.542-1.006 4.982-2.802 6.782-1.795 1.799-4.233 2.812-6.775 2.816-2.546 0-4.987-1.011-6.787-2.811s-2.811-4.242-2.811-6.787c0-2.546 1.011-4.987 2.811-6.787s4.241-2.811 6.787-2.811c2.542 3e-3 4.98 1.016 6.775 2.816 1.796 1.8 2.804 4.239 2.802 6.782z"></path>
                <path stroke-width="1.868" d="M179.347 214.19c2e-3 2.542-1.006 4.982-2.802 6.782-1.795 1.799-4.233 2.812-6.775 2.816-2.546 0-4.987-1.011-6.787-2.811s-2.811-4.242-2.811-6.787c0-2.546 1.011-4.987 2.811-6.787s4.241-2.811 6.787-2.811c2.542 3e-3 4.98 1.016 6.775 2.816 1.796 1.8 2.804 4.239 2.802 6.782z"></path>
                <path stroke="none" fill="var(--color1, #97cad1)" d="M233.783 214.19c2e-3 2.542-1.006 4.982-2.802 6.782-1.795 1.799-4.233 2.812-6.775 2.816-5.289 0-9.576-4.297-9.576-9.598s4.287-9.598 9.576-9.598c2.542 3e-3 4.98 1.016 6.775 2.816 1.796 1.8 2.804 4.239 2.802 6.782z"></path>
                <path stroke-width="1.868" d="M233.783 214.19c2e-3 2.542-1.006 4.982-2.802 6.782-1.795 1.799-4.233 2.812-6.775 2.816-5.289 0-9.576-4.297-9.576-9.598s4.287-9.598 9.576-9.598c2.542 3e-3 4.98 1.016 6.775 2.816 1.796 1.8 2.804 4.239 2.802 6.782z"></path>
                <path stroke="none" fill="var(--color1, #97cad1)" d="M287.212 214.19c2e-3 2.542-1.005 4.982-2.801 6.782-1.796 1.799-4.233 2.812-6.776 2.816-2.545 0-4.987-1.011-6.787-2.811s-2.811-4.242-2.811-6.787c0-2.546 1.011-4.987 2.811-6.787s4.242-2.811 6.787-2.811c2.543 3e-3 4.98 1.016 6.776 2.816s2.803 4.239 2.801 6.782z"></path>
                <path stroke-width="1.868" d="M287.212 214.19c2e-3 2.542-1.005 4.982-2.801 6.782-1.796 1.799-4.233 2.812-6.776 2.816-2.545 0-4.987-1.011-6.787-2.811s-2.811-4.242-2.811-6.787c0-2.546 1.011-4.987 2.811-6.787s4.242-2.811 6.787-2.811c2.543 3e-3 4.98 1.016 6.776 2.816s2.803 4.239 2.801 6.782z"></path>
                <path stroke-width="1.868" stroke="var(--color2, #353e48)" d="M343.665 214.19c2e-3 2.542-1.005 4.982-2.801 6.782-1.796 1.799-4.233 2.812-6.776 2.816-2.545 0-4.987-1.011-6.787-2.811s-2.811-4.242-2.811-6.787c0-2.546 1.011-4.987 2.811-6.787s4.242-2.811 6.787-2.811c2.543 3e-3 4.98 1.016 6.776 2.816s2.803 4.239 2.801 6.782z"></path>
                <path stroke="none" fill="var(--color3, #0098ab)" d="M86.6393 99.5176l-9.109 48.0694c0 0 4.048 3.499 5.783 2.13s6.796-7.302 12.434-7.15l2.024 0.152c0 0-0.884-6.084 1.871-10.039 2.7547-3.955 15.1907-31.641-13.003-33.1624z" fill-rule="evenodd"></path>
                <path stroke="none" fill="var(--color7, #f6f7f8)" d="M102.728 169.372c13.184 8.041 12.135 5.37 13.783 9.039s15.581 22.14 15.581 22.14l7.94-7.178c0 0-19.776-31.477-42.5473-48.97 0 0-5.693-1.644-7.791 1.495s-5.843 6.28-9.139 5.532c0 0 0.45 7.327 22.1733 17.942z" fill-rule="evenodd"></path>
                <path stroke="none" fill="var(--color5, #efdecc)" d="M125.918 148.014c0 0 8.214-3.375 13.591-3.068s9.558-0.768 9.558-0.768 3.883-20.412-0.747-24.248l9.857-5.679c0 0-1.045-20.2574-16.129-26.8574 0 0-7.617 2.456-12.844 36.2194zM126.926 149.695c0 0 0.152 4.773 2.745 7.082s26.976 14.934 26.976 14.934 15.121 16.013 18.325 21.094 7.473 10.777 7.473 10.777l8.999-7.902c0 0-13.27-32.59-41.792-49.68 0 0-10.067-0.154-14.795 1.077s-7.931 2.618-7.931 2.618z" fill-rule="evenodd"></path>
                <path stroke="none" fill="var(--color3, #0098ab)" d="M184.186 146.68c0 0-1.816 6.945 0 10.261s28.376 23.403 28.376 23.403l7.108-12.092-16.647-20.477c0 0-3.741-2.386-5.612-1.095s-7.26 0.479-8.4-0.383-4.825 0.383-4.825 0.383z" fill-rule="evenodd"></path>
                <path stroke="none" fill="var(--color7, #f6f7f8)" d="M201.758 97.4971c0 0 9.282 5.7669 9.548 20.7639s1.611 17.689 1.611 17.689l2.721 3.706-4.332 4.368-5.123-2.499-1.539 7.498c0 0-2.502-3.408-6.157-3.242s-5.965 1.757-10.198 0-6.926-0.918-6.926-0.918z" fill-rule="evenodd"></path>
                <path stroke="none" fill="var(--color4, #fff)" d="M224.903 85.373l-3.52 3.021c0 0 1.387 2.913 0.107 4.748-1.134 1.625-2.24 4.072-4.373 4.356s-3.733 2.011-4.373 4.384 1.28 5.719 1.28 5.719l14.719-19.853z" fill-rule="evenodd"></path>
                <path stroke="none" fill="var(--color5, #efdecc)" d="M220.602 83.37c0 0-2.111 8.376-21.233 4.355-2.932-1.001-11.144 1.906-13.021 3.024s-8.681 1.331-9.854-3.024 4.01-5.362 5.113-5.362 4.623-2.683 2.16-5.591c-1.407-1.342 4.341-2.907 9.854-1.789s13.725-1.657 19.239-0.381 8.328 6.419 7.742 8.768z" fill-rule="evenodd"></path>
                <path stroke="none" fill="var(--color6, #fa6666)" d="M229.704 38.8984l-23.139 13.45 27.218 8.777z" fill-rule="evenodd"></path>
                <path stroke="none" fill="var(--color4, #fff)" d="M243.767 104.277c0 0-6.899 14.481-7.717 22.486s-3.275 27.313-3.275 27.313l23.271-3.767c0 0-1.637-5.298 0-9.419s5.262-17.306 5.262-17.306l-3.859-2.118 4.561-13.068c0 0-9.238-7.064-18.243-4.121z" fill-rule="evenodd"></path>
                <path stroke="none" fill="var(--color5, #efdecc)" d="M237.816 156.733c0 0 15.214 13.683 20.936 16.539l11.322-12.184-13.619-10.043z" fill-rule="evenodd"></path>
                <path stroke="none" fill="var(--color3, #0098ab)" d="M142.08 68.1972c0 0-0.915-9.23 6.954-11.673s14.183 5.837 14.183 5.837zM297.293 211.672l4.435 8.075c0 0 6.452-5.152 6.586-7.101s2.151-2.784 2.688-2.784 8.469-9.466 8.469-9.466-2.689-3.481-5.781-2.785-8.064 3.48-8.064 3.48-1.613 7.009-5.108 7.541z" fill-rule="evenodd"></path>
                <path stroke-width="1.868" stroke-linecap="round" d="M227.735 157.106l19.153 15.155"></path>
                <path stroke-width="1.705" stroke-linecap="round" d="M205.861 90.4238c0 0-3.081 7.225-5.991 7.403-2.397 5.0532-19.515 49.1802-19.515 49.1802s3.937-2.123 6.505-0.875 4.793 2.631 8.217 1.404 7.531-0.671 9.244 0.477l3.252-5.803"></path>
                <path stroke-width="1.868" stroke-linecap="round" d="M199.509 112.103l4.398 21.82c0.917 3.07 3.482 7.635 8.43 10.138s8.796 7.487 8.796 10.321 5.865 3.734 5.865 3.734 5.131-3.099-2.2-11.028-12.644-11.979-12.644-11.979 3.849-30.046-4.581-33.571M213.655 109.621l28.193-35.9437c0 0 0.181-2.719-3.638-2.155l-3.093-3.325c0 0-5.628 5.028-5.178 6.226s2.814 2.256 0.631 4.732-8.731 8.486-8.731 8.486 1.637 6.894-2 7.778-9.459 4.035-8.004 8.1917"></path>
                <path stroke-width="1.705" stroke-linecap="round" d="M221.686 82.3425c0 0 0-10.173-12.097-11.114M216.646 78.3015c0 0-0.713-4.837-11.765-3.927s-13.37 0.575-17.47-0.114M212.613 78.8655c0 0-5.928-1.519-9.241-0.098-2.093 1.244-8.893 0.131-12.729-1.087s-10.288 0.816-10.288 0.816M217.654 81.3315c0 0-3.86 3.75-23.51 0.917-9.47 0-13.789 3.124-13.789 3.124M218.662 85.3735c0 0-7.167 3.103-16.432 1.618s-13.811 0.402-13.811 0.402"></path>
                <path stroke="none" fill="var(--color3, #0098ab)" d="M243.636 195.499c0 0 6.984 10.466 9.312 10.201s6.079-6.094 9.054-5.829 4.785 0.687 5.044 1.469-12.416 18.668-13.452 18.404-5.173-7.552-5.173-7.552l-10.605-4.57 2.328-5.366"></path>
                <path stroke-width="1.868" stroke-linecap="round" d="M243.636 195.499c0 0 6.984 10.466 9.312 10.201s6.079-6.094 9.054-5.829 4.785 0.687 5.044 1.469-12.416 18.668-13.452 18.404-5.173-7.552-5.173-7.552l-10.605-4.57 2.328-5.366"></path>
                <path stroke="none" fill="var(--color4, #fff)" d="M222.694 150.539c0 1.953-1.579 3.536-3.528 3.536s-3.528-1.583-3.528-3.536 1.579-3.536 3.528-3.536 3.528 1.583 3.528 3.536z"></path>
                <path stroke-width="1.868" stroke-linejoin="bevel" d="M222.695 150.539c0 1.953-1.579 3.536-3.528 3.536s-3.528-1.583-3.528-3.536 1.579-3.536 3.528-3.536 3.528 1.583 3.528 3.536z"></path>
                <path stroke-width="1.868" stroke-linecap="round" d="M238.824 87.3942l-7.6-51.527c0 0-24.659 15.47-24.659 17.571s30.076 12.603 30.076 12.603M211.605 144.982l6.049-6.062"></path>
                <path stroke-width="1.705" stroke-linecap="round" d="M145.631 82.3418c0 0-8.995 8.568-12.047 22.3342l-8.674 41.793c0 0 5.943 2.056 14.136-1.902 4.497-1.901 13.813-1.109 13.813-1.109s-0.963-11.4 1.285-15.358"></path>
                <path stroke-width="1.705" stroke-linecap="round" d="M145.393 119.724l15.756-6.973c0 0 1.886-20.7624-17.085-29.3994M140.031 104.569l7.057 14.145M161.076 115.683c0 0 7.939 21.133 11.474 25.459s4.765 11.277 2.92 13.593-3.534 4.568-6.147 2.671-1.076-2.569-2.305-3.624 2.766-6.556 2.766-6.556-15.522-11.185-19.672-27.636"></path>
                <path stroke="none" fill="var(--color4, #fff)" d="M169.266 150.539c0 1.953-1.58 3.536-3.528 3.536s-3.529-1.583-3.529-3.536 1.58-3.536 3.529-3.536 3.528 1.583 3.528 3.536z"></path>
                <path stroke-width="1.705" stroke-linejoin="bevel" d="M169.265 150.539c0 1.953-1.58 3.536-3.528 3.536s-3.529-1.583-3.529-3.536 1.58-3.536 3.529-3.536 3.528 1.583 3.528 3.536z"></path>
                <path stroke-width="1.705" stroke-linecap="round" stroke-linejoin="bevel" d="M156.028 93.4554c0 0-3.293-10.099 2.888-11.358s10.205 1.279 10.349-9.859M128.941 72.2394c0 0 14.756-2.254 25.413-5.568s11.886-3.997 11.886-3.997-2.416-8.608-12.889-7.515-9.545 12.707-9.545 12.707"></path>
                <path stroke-width="1.705" stroke-linecap="round" d="M142.214 70.218c0 0-1.287 5.863 3.289 6.895 0 0-2.392 3.881 2.593 3.105M154.144 69.208c0 0-4.536 3.776 0 7.072"></path>
                <path stroke-width="1.868" stroke-linecap="round" d="M159.185 67.999c0 0-0.14 3.572 3.216 3.202s3.356-3.202 3.356-3.202 2.237 2.34 4.334 0.986 0.979-3.449 0-3.818"></path>
                <path stroke-width="1.705" stroke-linecap="round" d="M126.933 147.271c0 0-0.415 6.863 5.128 9.783s29.105 16.327 29.105 16.327l21.345 30.201 10.949-9.032c0 0-12.197-30.918-42.465-51.587M175.314 157.107l19.154 15.155"></path>
                <path stroke="none" fill="var(--color3, #0098ab)" d="M186.403 200.328l3.507 4.799c0 0-1.158 2.731-0.772 3.642s4.645 7.542 5.476 6.891 20.381-20.026 20.967-21.717-3.479-4.362-6.402-3.221l-13.478 5.302-1.087-2.416"></path>
                <path stroke-width="1.705" stroke="var(--color2, #353e48)" stroke-linecap="round" d="M186.403 200.327l3.507 4.799c0 0-1.158 2.731-0.772 3.642s4.645 7.542 5.476 6.891 20.381-20.026 20.967-21.717-3.479-4.362-6.402-3.221l-13.478 5.302-1.087-2.416"></path>
                <path stroke-width="1.705" stroke="var(--color2, #353e48)" stroke-linecap="round" d="M195.045 196.509c0 0 2.747 7.794-5.617 9.093"></path>
                <path stroke-width="1.705" stroke-linecap="round" d="M144.662 148.013l-2.615 6.055 11.539 7.113c2.45 1.376 6.271 1.454 7.615-0.782"></path>
                <path stroke-width="1.705" stroke-linecap="round" d="M147.088 149.022l-2.016 6.062"></path>
                <path stroke-width="1.868" stroke-linecap="round" stroke-linejoin="bevel" d="M94.1025 91.4346c0 0-8.2939 5.552-14.1369 50.5374-0.942 6.318-0.942 15.315 7.069 19.718l27.6164 15.123 16.964 23.737c0 0 7.729-4.785 9.425-8.997 0 0-18.284-28.523-37.699-44.604"></path>
                <path stroke-width="1.705" stroke-linecap="round" stroke-linejoin="bevel" d="M92.6967 98.5068c0 0 22.4683 8.1462 12.5453 27.6572 0 0-4.63 5.58-5.007 17.271 0 0-8.8523-0.935-10.5473 2.183s-4.776 6.079-8.011 5.3-5.239-1.715-6.163-0.779"></path>
                <path stroke-width="1.705" stroke-linecap="round" d="M88.6592 101.538c0 0-1.28 20.398 10.628 32.394 11.9078 11.996 17.1168 17.993 17.1168 17.993l-2.046 1.548 5.395 4.643c0 0 3.163-5.61-1.116-11.028s-18.372-24.958-18.372-24.958v-15.284"></path>
                <path stroke-width="1.868" stroke-linecap="round" stroke-linejoin="bevel" d="M89.6265 74.7053c0 0 2.736-8.842 11.4375-8.52 8.701 0.322 11.963 8.842 11.963 10.61s0.932 3.055 0.776 6.109-1.013 13.182-7.809 12.056c-6.7965-1.126-1.998 10.6187-1.998 10.6187M86.6025 78.3003c0 0 0.167 8.14 9.073 11.114M111.805 76.2963c0 0-6.258-0.636-9.073 6.0461"></path>
                <path stroke="none" fill="var(--color4, #fff)" d="M116.845 150.539c0 1.953-1.579 3.536-3.528 3.536s-3.528-1.583-3.528-3.536 1.58-3.536 3.528-3.536 3.528 1.583 3.528 3.536z"></path>
                <path stroke-width="1.705" stroke-linejoin="bevel" d="M116.845 150.539c0 1.953-1.579 3.536-3.528 3.536s-3.528-1.583-3.528-3.536 1.58-3.536 3.528-3.536 3.528 1.583 3.528 3.536z"></path>
                <path stroke-width="1.705" stroke-linecap="round" stroke-linejoin="bevel" d="M120.878 155.085l20.161 16.166"></path>
                <path stroke="none" fill="var(--color3, #0098ab)" d="M137.007 197.872l3.67 7.458c0 0-1.259 3.1 0.647 4.852 1.183 1.094 2.294 2.264 3.324 3.503l4.255-4.582c0 0 0.152-2.877 0.856-3.325s8.708-4.085 11.442-10.418c0 0-1.379-5.929-10.171-0.809-3.687 1.752-5.247 2.695-5.247 2.695s-1.986 6.198-3.546 7.141"></path>
                <path stroke-width="1.705" stroke="var(--color2, #353e48)" stroke-linecap="round" d="M137.007 197.872l3.67 7.458c0 0-1.259 3.1 0.647 4.852 1.183 1.094 2.294 2.264 3.324 3.503l4.255-4.582c0 0 0.152-2.877 0.856-3.325s8.708-4.085 11.442-10.418c0 0-1.379-5.929-10.171-0.809-3.687 1.752-5.247 2.695-5.247 2.695s-1.986 6.198-3.546 7.141"></path>
                <path stroke-width="1.705" stroke="var(--color2, #353e48)" stroke-linecap="round" d="M303.293 200.55c0 0 0.89 5.725-4.992 6.062"></path>
                <path stroke-width="1.868" stroke-linecap="round" d="M236.808 150.034c0 0 3.558-32.636 6.636-38.382s9.745-16.882 5.936-22.189-7.237-10.242-5.714-11.624 16.19-5.809 17.333-4.269 7.049 13.996 7.049 15.659 0.571 6.966-6.668 8.741c-2.857 1.39-2.285 7.549-2.285 7.549M247.896 104.569c0 0 12.903 1.516 25.998 13.987s27.731 24.176 28.501 26.503 2.888 11.221-3.659 8.506c-3.082-1.745-2.311-6.713-2.311-6.713l-46.987-30.643"></path>
                <path stroke-width="1.868" stroke-linecap="round" d="M263.017 124.776l-5.041 19.196M249.554 146.464c0 0 8.692-1.061 8.499 0s2.865 6.464 5.489 7.21 9.577 4.767 8.418 6.491-11.782 15.127-11.782 15.127-21.633-15.346-23.371-19.545M232.774 155.085l22.178-5.051M256.968 83.3521l7.057-2.021M259.981 86.3831c0 0-3.165 0.726-3.007 2.911s2.515 3.151 4.027 3.151"></path>
                <path stroke="none" fill="var(--color1, #97cad1)" d="M213.622 178.788l6.063 3.724c0 0 3.58 5.044 8.051 8.527s12.711 9.511 12.711 9.511l3.417-6.132-21.445-26.198zM264.026 171.393l13.334 8.342 19.322 28.898c0 0 8.303-1.515 6.254-6.957-2.156-5.724-16.43-30.283-16.43-30.283l-14.855-9.235z" fill-rule="evenodd"></path>
                <path stroke-width="1.868" stroke-linecap="round" d="M290.54 210.324c0 0 3.616-2.314 5.71 0s3.616 7.521 5.329 6.171 17.892-20.056 17.892-20.056-2.094-2.683-5.901-2.21-11.055 5.699-11.055 5.699l-14.64-27.808c-2.094-4.263-12.76-10.973-12.76-10.973M263.018 172.261l14.588 7.802 19.687 28.57M214.951 179.845c0 0 3.821 2.987 5.503 3.636 0 0 2.286 6.363 5.67 8.052 2.738 1.766 14.248 11.038 14.248 11.038l3.492-6.623c0 0-27.679-39.738-34.275-43.894M184.055 144.982c0 0-2.364 10.087 1.749 14.659s26.865 20.703 26.865 20.703l10.025-12.066"></path>
            </g>
            <defs>
                <clipPath id="clip0_2_1945">
                    <rect fill="#fff" width="379" height="269"></rect>
                </clipPath>
            </defs>
        </symbol>
        <symbol id="icon-link" viewBox="0 0 32 32">
<path fill="#00798a" style="fill: var(--color1, #00798a)" d="M19.638 4.552c1.041-1.041 2.73-1.041 3.771 0l1.886 1.886c1.042 1.041 1.042 2.73 0 3.771l-1.886 1.886-5.657-5.657 1.886-1.886zM16.809 7.381l5.657 5.657-10.923 10.923c-0.25 0.25-0.589 0.39-0.943 0.39h-4.438c-0.368 0-0.667-0.298-0.667-0.667v-4.438c0-0.354 0.14-0.693 0.391-0.943l10.923-10.923zM6.334 26c-0.552 0-1 0.448-1 1s0.448 1 1 1h19.333c0.552 0 1-0.448 1-1s-0.448-1-1-1h-19.333z"></path>
</symbol>
<symbol id="icon-online" viewBox="0 0 32 32">
<path fill="#707070" style="fill: var(--color1, #707070)" d="M3.808 5.191c-1.433 0-2.595 1.162-2.595 2.595v15.571c0 1.433 1.162 2.595 2.595 2.595h12.976c1.433 0 2.595-1.162 2.595-2.595v-3.65c0-0.104 0.116-0.166 0.202-0.108l5.566 3.711c0.862 0.575 2.017-0.043 2.017-1.080v-13.317c0-1.036-1.155-1.655-2.017-1.080l-5.566 3.711c-0.086 0.057-0.202-0.004-0.202-0.108v-3.65c0-1.433-1.162-2.595-2.595-2.595h-12.976z"></path>
</symbol>
<symbol id="icon-date" viewBox="0 0 32 32">
<path fill="#707070" style="fill: var(--color1, #707070)" d="M25.333 7.333c0.368 0 0.667 0.298 0.667 0.667v17.333c0 0.368-0.299 0.667-0.667 0.667h-18.667c-0.368 0-0.667-0.299-0.667-0.667v-17.333c0-0.368 0.298-0.667 0.667-0.667h18.667zM6.667 5.333c-1.473 0-2.667 1.194-2.667 2.667v17.333c0 1.473 1.194 2.667 2.667 2.667h18.667c1.473 0 2.667-1.194 2.667-2.667v-17.333c0-1.473-1.194-2.667-2.667-2.667h-18.667z"></path>
<path fill="#707070" style="fill: var(--color1, #707070)" d="M8 4.001c0-0.736 0.597-1.333 1.333-1.333s1.333 0.597 1.333 1.333v1.333c0 0.736-0.597 1.333-1.333 1.333s-1.333-0.597-1.333-1.333v-1.333z"></path>
<path fill="#707070" style="fill: var(--color1, #707070)" d="M21.333 4.001c0-0.736 0.597-1.333 1.333-1.333s1.333 0.597 1.333 1.333v1.333c0 0.736-0.597 1.333-1.333 1.333s-1.333-0.597-1.333-1.333v-1.333z"></path>
<path fill="#707070" style="fill: var(--color1, #707070)" d="M24 11.667c0 0.552-0.448 1-1 1h-14c-0.552 0-1-0.448-1-1s0.448-1 1-1h14c0.552 0 1 0.448 1 1z"></path>
</symbol>
<symbol id="travel_and_outdoor" viewBox="0 0 20 20" fill="none">
            <path fill="var(--color0, #31775a)" clip-rule="evenodd" d="M5.6843 2.6875 3.7531 5.0842C4.5607 5.5052 4.908 6.5881 4.3222 7.424l-1.542 2.2002 5.5126 0L6.7509 7.424C6.1143 6.5157 6.5796 5.3158 7.5399 4.9902zM9.3981 4.9057 6.0736 0.78c-0.2001-0.2483-0.5785-0.2483-0.7786 0L1.9705 4.9057 1.9613 4.917 1.8068 5.1088 1.4175 5.592C1.24 5.8122 1.2876 6.1048 1.4658 6.2725 1.5087 6.3128 1.5592 6.3459 1.6159 6.369 1.6735 6.3925 1.7376 6.4057 1.8068 6.4057l0.6205 0 0.2463 0 0.0145 0 0.1812 0 0.1426 0c0.081 0 0.1284 0.0911 0.0819 0.1574L3.012 6.68 2.2909 7.7089 2.1529 7.9057 0.9486 9.6242 0.946 9.6278 0.8583 9.753 0.4488 10.3372c-0.2322 0.3314 49e-4 0.7869 0.4095 0.7869h0.7134 0.1529 44e-4 3.0781l0 2.7098c-0.3802-0.038-0.7659-0.0575-1.1561-0.0575-0.7028 0-1.3909 0.0631-2.0589 0.184-0.4292 0.0776-0.6724 0.5229-0.5366 0.9374 0.1226 0.3742 0.5122 0.5879 0.9004 0.5216 0.5504-0.094 1.1167-0.143 1.6951-0.143 3.1983 0 6.0473 1.5027 7.8769 3.8448 0.2083 0.2666 0.5584 0.3869 0.8799 0.2816 0.4748-0.1555 0.6756-0.718 0.3719-1.1147-0.6811-0.8897-1.4894-1.6769-2.3976-2.3346 1.821-1.9259 4.4001-3.1276 7.2599-3.1276 0.4883 0 0.9684 0.035 1.438 0.1027 0.4729 0.0682 0.9206-0.2827 0.9206-0.7605 0-0.3495-0.2448-0.6536-0.5902-0.7069-0.5764-0.0891-1.167-0.1353-1.7684-0.1353-0.3834 0-0.7624 0.0188-1.1362 0.0555V9.2191l1.6824 0 44e-4 0 0.1529 0 0.7134 0c0.4046 0 0.6417-0.4556 0.4095-0.7869l-0.4095-0.5843-0.0877-0.1251-26e-4-37e-4-0.6061-0.8648-0.1379-0.1969-0.7211-1.0289-0.0819-0.1168c-0.0465-0.0663 9e-4-0.1574 0.0819-0.1574l0.124 0 0.0145 0 42e-4 0 0.2422 0 0.6205 0c0.1544 0 0.2835-0.0658 0.372-0.1652 0.0285-0.0321 0.0528-0.0676 0.0723-0.1056 0.0848-0.1646 0.0804-0.3749-0.055-0.5429l-0.3893-0.4832-0.1546-0.1918-91e-4-0.0113-2.434-3.0206c-0.2001-0.2483-0.5785-0.2483-0.7787 0l-2.4339 3.0206-92e-4 0.0113-0.1545 0.1918-0.3893 0.4832c-0.0687 0.0851-0.1036 0.1811-0.1104 0.2765-8e-4 0.0112-12e-4 0.0224-12e-4 0.0336-7e-4 0.2589 0.2031 0.5036 0.5009 0.5036l0.6205 0 0.1428 0c0.0337 0 0.0617 0.0158 0.0794 0.0391l33e-4 47e-4c0.0218 0.0323 0.025 0.0768-8e-4 0.1136l-0.0819 0.1168-0.7211 1.0289-0.0422 0.0603-0.0943 0.1345-0.6076 0.8669-25e-4 37e-4-0.0877 0.1251-0.4095 0.5843c-0.2322 0.3313 48e-4 0.7869 0.4095 0.7869l0.7134 0 0.1529 0 44e-4 0 2.3923 0v2.4106c-2.2707 0.5331-4.2818 1.7397-5.811 3.3976-0.0362 0.0392-0.067 0.0801-0.0925 0.1221-0.8703-0.4699-1.8081-0.8308-2.7952-1.0644l0-2.9609h3.037 44e-4 0.1528 0.7135c0.4046 0 0.6416-0.4555 0.4094-0.7869L10.2148 9.753 10.127 9.6278l-25e-4-36e-4-1.2043-1.7185-0.138-0.1968L8.0611 6.68 7.9792 6.5631c-0.0464-0.0663 1e-3-0.1574 0.0819-0.1574l0.1427 0 0.4767 0 0.0145 0 0.2463 0 0.519 0 0.1015 0c0.0448 0 0.0875-55e-4 0.1277-0.0158 0.3364-0.0862 0.497-0.5057 0.2616-0.7979L9.5618 5.1088 9.4073 4.917zM14.3261 4.2252l1.1958-1.484 1.1049 1.3712c-0.7092 0.466-0.9855 1.4727-0.4336 2.2602l0.9437 1.3465-3.4722 0 0.9438-1.3465c0.5107-0.7288 0.3121-1.6454-0.2824-2.1474z" fill-rule="evenodd"></path>
            <defs>
                <clipPath id="clip0_2_2343">
                    <rect fill="#fff" width="20" height="20"></rect>
                </clipPath>
                <clipPath id="clip1_2_2343">
                    <rect fill="#fff" width="20" height="20"></rect>
                </clipPath>
                <clipPath id="clip2_2_2343">
                    <rect fill="#fff" width="20" height="20"></rect>
                </clipPath>
            </defs>
        </symbol>
        <symbol id="social_activities" viewBox="0 0 20 20" fill="none">
            <path fill="var(--color1, #7a1d47)" clip-rule="evenodd" d="M0.6777 17.2594c0.4551 0.2095 0.9186 0.4041 1.3898 0.5829 2.4328 0.9233 5.0712 1.4288 7.8278 1.4288 2.7575 0 5.3969-0.5059 7.8304-1.4298 0.4711-0.1789 0.9345-0.3735 1.3896-0.5831l-0.7124-1.3235-0.9367-1.7402-0.7767-1.4432-5.9409-11.0371-0.8518-1.5824-0.8517 1.5824-7.6549 14.2216zM9.8968 3.2967l5.3816 9.9979c-1.6909 0.5653-3.5004 0.8715-5.3814 0.8715-1.8811 0-3.6907-0.3063-5.3816-0.8716zM9.897 15.7997c-2.1615 0-4.2369-0.3688-6.1666-1.0469L2.785 16.5092c2.2144 0.8159 4.6089 1.2619 7.1103 1.2619 2.5024 0 4.8978-0.4463 7.1128-1.2629l-0.9448-1.7553c-1.9297 0.678-4.0049 1.0468-6.1663 1.0468zM11.5003 12.0002c0.5523 0 1-0.4477 1-1s-0.4477-1-1-1-1.0001 0.4477-1.0001 1 0.4478 1 1.0001 1zM9.187 12.0002c0 0.5523-0.4477 1-1 1-0.5523 0-1-0.4477-1-1 0-0.5523 0.4477-1 1-1 0.5523 0 1 0.4477 1 1zM9.8259 9.0002c0.5523 0 1.0001-0.4477 1.0001-1 0-0.5523-0.4478-1-1.0001-1-0.5523 0-1 0.4477-1 1 0 0.5523 0.4477 1 1 1z" fill-rule="evenodd"></path>
            <defs>
                <clipPath id="clip1_2_2349">
                    <rect fill="#fff" transform="translate(0.5)" width="19" height="20"></rect>
                </clipPath>
            </defs>
        </symbol>
        <symbol id="hobbies_and_passions" viewBox="0 0 20 20" fill="none">
            <path fill="var(--color2, #ffad43)" clip-rule="evenodd" d="M5.9806 2.2328 6.9342 3.2546c0.0432 0.0316 0.0844 0.0675 0.1232 0.108l1.383 1.4441 1.1469-2.5739zM4.27 2.3985 5.5178 3.7356 1.51 12.4472c-0.1566 0.3404-0.0883 0.7422 0.1721 1.0116l1.3428 1.3896c0.0204 0.029 0.0433 0.0568 0.0688 0.0831l3.6661 3.7801c0.2996 0.3089 0.7116 0.4832 1.142 0.4832h4.8428c0.3406 0 0.6227-0.2495 0.6737-0.5758 0.099-0.0628 0.1882-0.1465 0.2606-0.2511l4.6956-6.7802c0.3879-0.5601 0.0431-1.3107-0.5958-1.4146l-1.0932-3.3556c-0.1961-0.6018-0.9317-0.8241-1.4282-0.4316l-4.455 3.5219c-0.095 0.075-0.169 0.1609-0.224 0.2532H7.66c-0.0358 0-0.0709 19e-4-0.1051 57e-4l1.6553-3.7422c0.029-0.0655 0.0497-0.1331 0.0624-0.2016 0.0449-0.0574 0.0839-0.1217 0.1154-0.1925l1.7298-3.8822c0.2679-0.6012-0.1722-1.2791-0.8304-1.2791l-5.3528 1e-4c-0.7949 0-1.2069 0.9482-0.6646 1.5293zM11.7652 17.8312 6.9423 11.6281c-73e-4-94e-4-0.0144-0.0188-0.0213-0.0284l-1.6159 3.6532 2.4336 2.5093c0.0428 0.0441 0.1016 0.069 0.1631 0.069zM2.8787 12.7347 6.5232 4.8129l1.295 1.3876-3.5338 7.989zM8.5891 11.5246l4.3212 5.558 3.8454-5.5525H11.366c-0.0355 0-0.0702-19e-4-0.104-55e-4zM16.3406 10.161h-3.6598l2.9103-2.3007z" fill-rule="evenodd"></path>
            <defs>
                <clipPath id="clip1_2_2355">
                    <rect fill="#fff" transform="translate(0.90918)" width="18.1818" height="20"></rect>
                </clipPath>
            </defs>
        </symbol>
        <symbol id="sports_and_fitness" viewBox="0 0 20 20" fill="none">
            <path fill="var(--color3, #008294)" clip-rule="evenodd" d="M11.8128 18.3063C11.2287 18.4332 10.6221 18.5 10 18.5c-0.6483 0-1.2797-0.0726-1.8864-0.2101l-0.7855-2.5096 0.9386-1.6256h3.5318l0.7615 1.7641zM13.5691 17.7166c0.7379-0.3418 1.4185-0.7864 2.0234-1.3154l-1.595-0.0533zM16.9146 14.9446c0.8712-1.216 1.4295-2.6714 1.5573-4.2485l-2.2732-1.7387-1.8342 0.4986-1.238 3.9904 0.6008 1.3916zM18.4103 8.7605c-0.13-0.8895-0.3977-1.7342-0.7808-2.5119L17.146 7.7934zM16.5712 4.608 15.6498 7.5522 13.9263 8.0207 10.8119 5.6508V3.872l2.4372-1.7289c1.3019 0.5389 2.4408 1.3921 3.3221 2.4649zM11.4011 1.6149 10.185 2.4776 8.9852 1.56C9.318 1.5204 9.6566 1.5 10 1.5c0.4772 0 0.9453 0.0393 1.4011 0.1149zM7.3941 0.3429C6.816 0.4985 6.2583 0.7044 5.7266 0.956 4.6058 1.4865 3.5999 2.2195 2.755 3.1072l-14e-4 1e-4c-0.4494 0.4722-0.8531 0.9882-1.204 1.5411l14e-4 0C0.5688 6.1958 0 8.0315 0 10c0 0.0577 5e-4 0.1153 15e-4 0.1727L0 10.1738c0.0102 0.5971 0.0727 1.1814 0.1831 1.7485l13e-4-1e-3c0.23 1.1822 0.6684 2.2899 1.2752 3.2835l-16e-4 1e-4c0.3185 0.5215 0.6834 1.0115 1.089 1.4644l16e-4-1e-4c1.1678 1.3039 2.6728 2.2994 4.3779 2.8496 0.5452 0.1759 1.1112 0.3068 1.6929 0.3871C9.0707 19.9682 9.5315 20 10 20c5.5228 0 10-4.4772 10-10 0-5.5228-4.4772-10-10-10-0.9015 0-1.7751 0.1193-2.6059 0.3429zM6.3506 17.6789 5.9985 16.5538 4.6422 16.5992c0.5218 0.4241 1.0948 0.7876 1.7084 1.0797zM3.2338 15.1454l2.7826-0.0931 1.0125-1.7537-1.1727-3.7802-1.8739-0.5021-2.4372 1.8642c0.1639 1.5934 0.768 3.0562 1.6887 4.2649zM1.5606 8.9802 2.8494 7.9944l3e-4-12e-4-0.5198-1.661c-0.3922 0.8187-0.6572 1.7099-0.7694 2.648zM3.3805 4.6673l0.9002 2.876 1.9388 0.5195 3.0924-2.3531 0-2.0113L7.101 2.0072C5.6285 2.5414 4.3456 3.4708 3.3805 4.6673zM11.8016 12.6547H8.8011l-0.489-0.2824-1.0082-3.2497 2.7967-2.1281 2.7968 2.1281z" fill-rule="evenodd"></path>
        </symbol>
        <symbol id="health_and_wellness" viewBox="0 0 20 20" fill="none">
            <path fill="var(--color0, #31775a)" clip-rule="evenodd" d="M11.9851 15.6191c0.743-1.4861 1.2439-3.6392 1.2439-6.0954 0-3.0199-1.8818-5.7842-3.24-7.3597-0.0257-0.0299-0.0467-0.0422-0.0587-0.0477-0.013-6e-3-0.0245-8e-3-0.0347-8e-3-0.0101 0-0.0217 2e-3-0.0347 8e-3C9.849 2.1218 9.828 2.1341 9.8022 2.164 8.4441 3.7396 6.5623 6.5038 6.5623 9.5237c0 2.4562 0.5008 4.6093 1.2439 6.0954 0.7858 1.5717 1.6071 1.9999 2.0894 1.9999 0.4823 0 1.3037-0.4282 2.0895-1.9999zM14.65 9.1615c0.5691-0.1292 1.1308-0.2067 1.6596-0.2494 0.3822-1.4093 0.3239-2.9245 0.1587-4.0843-47e-4-0.0324-0.0133-0.0476-0.0167-0.0528-4e-3-62e-4-76e-4-92e-4-0.0103-0.0109-28e-4-18e-4-71e-4-38e-4-0.0143-47e-4-62e-4-8e-4-0.0237-22e-4-0.055 76e-4-0.7497 0.2335-1.6231 0.579-2.4515 1.0675-0.1773-0.4547-0.3785-0.8915-0.5939-1.307 0.9278-0.5301 1.8652-0.8891 2.6206-1.1244 0.9062-0.2823 1.8016 0.2837 1.9354 1.2233 0.1594 1.1195 0.2503 2.6836-0.0929 4.246 0.041 1e-3 0.0814 22e-4 0.1213 35e-4 0.9486 0.0315 1.608 0.8606 1.4253 1.7919-0.3333 1.6987-1.1612 4.3285-3.1946 5.9457-2.118 1.6847-4.4368 2.5714-6.1409 2.498-1.7042 0.0734-4.023-0.8133-6.141-2.498-2.0333-1.6172-2.8613-4.247-3.1945-5.9457C0.4825 9.7365 1.142 8.9074 2.0905 8.8759c0.0399-13e-4 0.0804-25e-4 0.1213-35e-4C1.8687 7.31 1.9595 5.7459 2.1189 4.6264 2.2528 3.6868 3.1482 3.1208 4.0544 3.4031c0.7112 0.2215 1.5839 0.5527 2.458 1.0332-0.2177 0.4128-0.4218 0.847-0.6027 1.2995C5.1332 5.299 4.3277 4.9845 3.6295 4.767c-0.0312-98e-4-0.0487-84e-4-0.0549-76e-4-73e-4 9e-4-0.0115 29e-4-0.0143 47e-4-27e-4 17e-4-64e-4 47e-4-0.0104 0.0109-34e-4 52e-4-0.012 0.0204-0.0167 0.0528-0.1651 1.1598-0.2235 2.675 0.1588 4.0843 0.4641 0.0375 0.9536 0.1018 1.4512 0.2043 0.1564-3.3844 2.221-6.3121 3.577-7.8852 0.6339-0.7354 1.717-0.7354 2.3509 0 1.362 1.58 3.4388 4.5268 3.5789 7.9303zM12.8485 16.9958c0.9647-1.527 1.6268-3.7855 1.7767-6.3567 1.1288-0.3042 2.2946-0.3668 3.2384-0.3354 0.0327 11e-4 0.0487 8e-3 0.0543 0.0109 66e-4 32e-4 99e-4 65e-4 0.0119 91e-4 2e-3 25e-4 45e-4 66e-4 62e-4 0.0137 16e-4 6e-3 48e-4 0.0233-16e-4 0.0554-0.3161 1.6112-1.0599 3.8125-2.6819 5.1027-0.8154 0.6486-1.6353 1.1452-2.404 1.5003zM6.8539 16.8517c-0.6804-0.3413-1.3943-0.791-2.1049-1.3562-1.622-1.2902-2.3658-3.4915-2.6819-5.1027-63e-4-0.0321-31e-4-0.0494-16e-4-0.0554 17e-4-71e-4 42e-4-0.0112 62e-4-0.0137 2e-3-26e-4 54e-4-59e-4 0.0119-91e-4 56e-4-29e-4 0.0217-98e-4 0.0544-0.0109 0.8844-0.0294 1.9637 0.0236 3.0249 0.2808 0.1393 2.514 0.7679 4.7328 1.691 6.2672z" fill-rule="evenodd"></path>
        </symbol>
        <symbol id="technology" viewBox="0 0 20 20" fill="none">
            <path fill="var(--color1, #7a1d47)" clip-rule="evenodd" d="M15.436 9.4923l1.2103 0c1.2364 0 2.2066 1.0604 2.0971 2.292l-0.6529 7.3329c-0.0363 0.4073-0.3774 0.7195-0.7864 0.7195-0.4636 0-0.8275-0.3977-0.7863-0.8595l0.6528-7.3329c0.0274-0.3079-0.2151-0.5731-0.5243-0.5731H2.301c-0.3091 0-0.5517 0.2652-0.5242 0.5731l0.6528 7.3329c0.0411 0.4618-0.3228 0.8595-0.7864 0.8595-0.4089 0-0.7501-0.3122-0.7864-0.7195L0.204 11.7843c-0.1096-1.2316 0.8606-2.292 2.097-2.292l1.1082 0C3.3038 8.7406 3.2504 8.0317 3.2504 7.4075c0-0.4157 0.0237-0.8232 0.0706-1.2197l-2.5315 0C0.3535 6.1878 0 5.8343 0 5.3983s0.3535-0.7895 0.7895-0.7895l2.6316 0c0.076 0 0.1495 0.0108 0.219 0.0308 0.7919-2.6167 2.7729-4.457 5.7825-4.457 3.0227 0 5.0077 1.8561 5.7927 4.4908 0.096-0.0416 0.2019-0.0646 0.3131-0.0646l2.6316 0c0.436 0 0.7895 0.3535 0.7895 0.7895S18.596 6.1878 18.16 6.1878l-2.6316 0-42e-4 0c0.047 0.3965 0.0706 0.8039 0.0706 1.2197 0 0.6242-0.0533 1.3331-0.1588 2.0848zM13.8403 9.4923c0.1164-0.7611 0.1756-1.4743 0.1756-2.0848 0-1.7251-0.4732-3.1576-1.2445-4.1234-0.7405-0.9269-1.8269-1.5225-3.3488-1.5225-1.5219 0-2.6083 0.5956-3.3487 1.5225-0.7714 0.9658-1.2445 2.3983-1.2445 4.1234 0 0.6105 0.0591 1.3237 0.1756 2.0848zM8.2787 6.1645c0 0.2906-0.2357 0.5263-0.5263 0.5263-0.2907 0-0.5264-0.2357-0.5264-0.5263 0-0.2907 0.2357-0.5264 0.5264-0.5264 0.2906 0 0.5263 0.2357 0.5263 0.5263zM9.3313 6.1645c0 0.872-0.7069 1.5789-1.5789 1.5789-0.8721 0-1.579-0.7069-1.579-1.5789 0-0.8721 0.7069-1.579 1.579-1.579 0.872 0 1.5789 0.7069 1.5789 1.579zM11.1971 6.6908c0.2906 0 0.5263-0.2357 0.5263-0.5263 0-0.2907-0.2357-0.5264-0.5263-0.5264-0.2907 0-0.5264 0.2357-0.5264 0.5263 0 0.2907 0.2357 0.5264 0.5264 0.5264zM11.1971 7.7434c0.872 0 1.5789-0.7069 1.5789-1.5789 0-0.8721-0.7069-1.579-1.5789-1.579-0.8721 0-1.579 0.7069-1.579 1.579 0 0.872 0.7069 1.5789 1.579 1.5789zM5.3829 15.2633l0-1.0526h3.1579l0 1.0526zM3.804 13.158c0-0.2906 0.2356-0.5263 0.5263-0.5263h5.2631c0.2907 0 0.5264 0.2357 0.5264 0.5263v3.1579c0 0.2907-0.2357 0.5264-0.5264 0.5264H4.3303c-0.2907 0-0.5263-0.2357-0.5263-0.5264zM10.9328 13.5988c0-0.436 0.3535-0.7895 0.7895-0.7895h2.6316c0.436 0 0.7895 0.3535 0.7895 0.7895s-0.3535 0.7895-0.7895 0.7895h-2.6316c-0.436 0-0.7895-0.3535-0.7895-0.7895zM11.7223 14.9598c-0.436 0-0.7895 0.3535-0.7895 0.7895s0.3535 0.7895 0.7895 0.7895h2.6316c0.436 0 0.7895-0.3535 0.7895-0.7895s-0.3535-0.7895-0.7895-0.7895z" fill-rule="evenodd"></path>
        </symbol>
        <symbol id="art_and_culture" viewBox="0 0 20 20" fill="none">
            <g fill="var(--color2, #ffad43)" clip-path="url(#clip0_2_2343)" clip-rule="evenodd" fill-rule="evenodd">
                <path d="M6.0186 14.6421c0 0 0 1e-4 0 0 0.4878 0.1684 0.9989 0.2767 1.5222 0.3183 0 0 0 0 0 0-0.5232-0.0416-1.0344-0.1499-1.5222-0.3183zM8.4063 14.9682c0 0 0 0 0 0zM10.5423 19.7197c-2.0794-0.5571-3.6265-2.1093-4.2663-4.007 0.5313 0.1352 1.0815 0.2101 1.6408 0.2189 0.5944 1.1459 1.65 2.0478 2.9953 2.4082 2.5403 0.6807 5.1515-0.8268 5.8322-3.3671L18.1 9.9131c0.068-0.254-0.0827-0.5152-0.3368-0.5832l-2.5878-0.6934c-0.0112-0.5073-0.0769-1.0207-0.2014-1.533L18.1329 7.95c1.0162 0.2722 1.6192 1.3167 1.347 2.3328l-1.3557 5.0596c-0.885 3.3025-4.2795 5.2622-7.5819 4.3773zM9.5524 15.7888c-0.2341 0.2341-0.5903 0.2717-0.8637 0.1128 0.2965-0.0277 0.5943-0.0742 0.8918-0.1405-94e-4 91e-4-0.0188 0.0183-0.0282 0.0277zM11.8523 15.1725c-0.1531-0.041-0.3092-0.0665-0.466-0.0764 0.5488-0.2911 1.0493-0.6489 1.4938-1.0603 0.3879 0.1856 0.7431 0.4363 1.0496 0.7428 0.4728 0.4728 0.8129 1.0618 0.986 1.7078 0.1021 0.381-0.124 0.7727-0.5051 0.8748-0.381 0.1021-0.7727-0.124-0.8748-0.5051-0.1082-0.4037-0.3207-0.7718-0.6162-1.0673s-0.6637-0.5081-1.0673-0.6163zM13.7138 13.4034c-0.0422-0.0421-0.0824-0.0862-0.1202-0.132 0.339-0.4213 0.6293-0.8795 0.8651-1.3651 0.0648 0.0773 0.1141 0.1697 0.142 0.2735 0.0216 0.0808 0.0641 0.1544 0.1233 0.2136 0.059 0.059 0.1326 0.1016 0.2134 0.1232s0.1658 0.0216 0.2465 0 0.1544-0.0642 0.2135-0.1232c0.2789-0.279 0.7311-0.279 1.0101 0 0.2789 0.2789 0.2789 0.7311 0 1.01-0.2364 0.2365-0.5309 0.4065-0.8538 0.4931-0.323 0.0865-0.6631 0.0865-0.986 0-0.323-0.0866-0.6174-0.2566-0.8539-0.4931z"></path>
                <path d="M10.6932 2.1582 2.4138 4.3766C2.1598 4.4447 2.009 4.7058 2.0771 4.9598l1.3557 5.0596c0.6807 2.5403 3.2918 4.0479 5.8321 3.3672 2.5403-0.6807 4.0479-3.2918 3.3672-5.8321l-1.3557-5.0596c-0.068-0.2541-0.3292-0.4048-0.5832-0.3367zM2.0441 2.9967C1.028 3.269 0.4249 4.3134 0.6972 5.3296l1.3557 5.0596c0.8849 3.3023 4.2794 5.2621 7.5818 4.3773 3.3024-0.8849 5.2621-4.2793 4.3773-7.5817l-1.3557-5.0597C12.384 1.109 11.3396 0.506 10.3234 0.7783z"></path>
                <path d="M4.9934 6.644C4.933 6.6602 4.8764 6.6881 4.8268 6.7262 4.7772 6.7643 4.7356 6.8117 4.7043 6.8659 4.673 6.92 4.6527 6.9798 4.6446 7.0418c-82e-4 0.062-41e-4 0.125 0.0121 0.1854C4.7588 7.6083 4.5327 8 4.1516 8.102 3.7706 8.2042 3.3789 7.978 3.2768 7.597 3.2121 7.3554 3.1956 7.1034 3.2282 6.8554 3.2609 6.6074 3.342 6.3682 3.4671 6.1516s0.2916-0.4065 0.49-0.5588c0.1985-0.1522 0.425-0.2639 0.6666-0.3287 0.2416-0.0647 0.4936-0.0812 0.7416-0.0486 0.248 0.0327 0.4871 0.1138 0.7038 0.2389 0.2166 0.1251 0.4065 0.2916 0.5587 0.49 0.1523 0.1985 0.264 0.425 0.3287 0.6666 0.1021 0.381-0.124 0.7727-0.505 0.8748-0.3811 0.1021-0.7728-0.124-0.8749-0.5051-0.0161-0.0604-0.0441-0.117-0.0821-0.1666-0.0381-0.0496-0.0856-0.0913-0.1397-0.1225-0.0542-0.0313-0.114-0.0516-0.176-0.0597-0.062-82e-4-0.125-41e-4-0.1854 0.0121z"></path>
                <path d="M9.5931 5.4116C9.4711 5.4443 9.367 5.5241 9.3039 5.6335 9.2408 5.7428 9.2236 5.8728 9.2563 5.9948c0.1021 0.381-0.124 0.7727-0.5051 0.8748-0.381 0.1021-0.7727-0.124-0.8748-0.505-0.1307-0.488-0.0623-1.0079 0.1903-1.4454 0.2526-0.4375 0.6686-0.7568 1.1566-0.8875 0.4879-0.1307 1.0078-0.0623 1.4454 0.1903 0.4375 0.2526 0.7567 0.6686 0.8874 1.1566 0.1022 0.381-0.124 0.7727-0.505 0.8748-0.3811 0.1021-0.7727-0.124-0.8748-0.5051-0.0328-0.122-0.1126-0.226-0.2219-0.2891C9.8451 5.396 9.7151 5.3789 9.5931 5.4116z"></path>
                <path d="M4.7561 9.8876c0.2789-0.279 0.7312-0.279 1.0101 0 0.3547 0.3546 0.7964 0.6096 1.2809 0.7394 0.4844 0.1298 0.9945 0.1298 1.4789 0 0.4845-0.1298 0.9262-0.3848 1.2808-0.7394 0.3547-0.3547 0.6097-0.7964 0.7395-1.2809 0.1021-0.381 0.4938-0.6071 0.8748-0.505 0.381 0.1021 0.6072 0.4937 0.5051 0.8748-0.1947 0.7266-0.5773 1.3893-1.1092 1.9212-0.532 0.532-1.1946 0.9146-1.9212 1.1092-0.7267 0.1948-1.4918 0.1948-2.2185 0-0.7267-0.1946-1.3893-0.5772-1.9212-1.1092-0.279-0.279-0.279-0.7312 0-1.0101z"></path>
            </g>
        </symbol>
        <symbol id="games" viewBox="0 0 20 20" fill="none">
            <g fill="var(--color3, #008294)" clip-path="url(#clip0_2_2343)">
                <path stroke-width="1.66667" stroke="var(--color3, #008294)" fill="none" d="M17.7775 0.833l-15.5556 0c-0.7671 0-1.3889 0.6218-1.3889 1.3889l0 15.5556c0 0.767 0.6218 1.3888 1.3889 1.3888h15.5556c0.767 0 1.3888-0.6218 1.3888-1.3888V2.2219c0-0.7671-0.6218-1.3889-1.3888-1.3889z"></path>
                <path d="M10.0036 11.6663c0.9205 0 1.6666-0.7462 1.6666-1.6666 0-0.9205-0.7461-1.6667-1.6666-1.6667-0.9205 0-1.6667 0.7462-1.6667 1.6667 0 0.9204 0.7462 1.6666 1.6667 1.6666z"></path>
                <path d="M14.4333 16.1038c0.9204 0 1.6666-0.7462 1.6666-1.6666 0-0.9205-0.7462-1.6667-1.6666-1.6667-0.9205 0-1.6667 0.7462-1.6667 1.6667 0 0.9204 0.7462 1.6666 1.6667 1.6666z"></path>
                <path d="M5.5671 7.2298c0.9204 0 1.6666-0.7462 1.6666-1.6666 0-0.9205-0.7462-1.6667-1.6666-1.6667-0.9205 0-1.6667 0.7462-1.6667 1.6667 0 0.9204 0.7462 1.6666 1.6667 1.6666z"></path>
            </g>
        </symbol>
        <symbol id="icon-plussvg" viewBox="0 0 32 32">
<path fill="#008294" style="fill: var(--color1, #008294)" d="M16 0c1.473 0 2.667 1.194 2.667 2.667v10.667h10.667c1.473 0 2.667 1.194 2.667 2.667s-1.194 2.667-2.667 2.667h-10.667v10.667c0 1.473-1.194 2.667-2.667 2.667s-2.667-1.194-2.667-2.667v-10.667h-10.667c-1.473 0-2.667-1.194-2.667-2.667s1.194-2.667 2.667-2.667h10.667v-10.667c0-1.473 1.194-2.667 2.667-2.667z"></path>
</symbol>
<symbol id="icon-searchsvg" viewBox="0 0 32 32">
<path fill="#008294" style="fill: var(--color1, #008294)" d="M12.698 0.508c6.733 0 12.191 5.458 12.191 12.19 0 2.632-0.834 5.069-2.252 7.062l9.189 9.192-2.873 2.873-9.192-9.189c-1.992 1.418-4.43 2.252-7.062 2.252-6.733 0-12.19-5.458-12.19-12.191s5.458-12.19 12.19-12.19zM12.698 4.571c-4.488 0-8.127 3.639-8.127 8.127s3.639 8.127 8.127 8.127c4.488 0 8.127-3.639 8.127-8.127s-3.639-8.127-8.127-8.127z"></path>
</symbol>
<symbol id="icon-TikTok" viewBox="0 0 32 32">
<path fill="#d9d9d9" style="fill: var(--color1, #d9d9d9)" d="M21.301 10.809c-0.935-0.608-1.606-1.583-1.818-2.718-0.046-0.249-0.072-0.501-0.072-0.758h-2.981l-0.006 11.944c-0.049 1.337-1.152 2.411-2.5 2.411-0.42 0-0.813-0.104-1.161-0.287-0.799-0.42-1.343-1.256-1.343-2.217 0-1.381 1.123-2.506 2.506-2.506 0.258 0 0.506 0.044 0.738 0.116v-3.042c-0.243-0.032-0.489-0.055-0.738-0.055-3.024 0-5.485 2.46-5.485 5.484 0 1.855 0.926 3.499 2.341 4.492 0.891 0.625 1.974 0.993 3.143 0.993 3.024 0 5.484-2.46 5.484-5.485v-6.058c1.169 0.839 2.602 1.334 4.148 1.334v-2.978c-0.834-0.003-1.609-0.249-2.258-0.671z"></path>
</symbol>
<symbol id="icon-Instagram" viewBox="0 0 32 32">
<path fill="#d9d9d9" style="fill: var(--color1, #d9d9d9)" d="M25.767 20.848c-0.053 1.17-0.249 1.806-0.411 2.228-0.218 0.56-0.479 0.96-0.901 1.38-0.417 0.42-0.818 0.68-1.378 0.895-0.422 0.165-1.060 0.361-2.23 0.417-1.265 0.056-1.64 0.068-4.848 0.068-3.205 0-3.583-0.012-4.848-0.068-1.17-0.056-1.805-0.252-2.227-0.417-0.563-0.216-0.96-0.476-1.38-0.895-0.423-0.42-0.683-0.82-0.898-1.38-0.163-0.422-0.361-1.058-0.412-2.228-0.062-1.265-0.073-1.646-0.073-4.847 0-3.208 0.011-3.586 0.073-4.851 0.050-1.17 0.249-1.805 0.412-2.231 0.215-0.559 0.476-0.957 0.898-1.377 0.42-0.419 0.817-0.68 1.38-0.898 0.422-0.165 1.057-0.359 2.227-0.415 1.265-0.056 1.643-0.070 4.848-0.070 3.208 0 3.583 0.014 4.848 0.070 1.17 0.056 1.808 0.249 2.23 0.415 0.56 0.218 0.96 0.479 1.378 0.898 0.422 0.42 0.683 0.818 0.901 1.377 0.162 0.426 0.358 1.061 0.411 2.231 0.059 1.265 0.073 1.643 0.073 4.851 0 3.201-0.014 3.582-0.073 4.847zM27.927 11.052c-0.059-1.279-0.26-2.152-0.56-2.913-0.305-0.789-0.713-1.458-1.382-2.127-0.666-0.666-1.335-1.075-2.124-1.383-0.764-0.297-1.634-0.501-2.913-0.556-1.279-0.062-1.688-0.073-4.948-0.073-3.258 0-3.669 0.011-4.948 0.073-1.276 0.056-2.146 0.26-2.914 0.556-0.786 0.308-1.455 0.717-2.121 1.383-0.669 0.669-1.078 1.338-1.385 2.127-0.297 0.761-0.498 1.634-0.56 2.913-0.056 1.279-0.070 1.688-0.070 4.949 0 3.258 0.014 3.666 0.070 4.945 0.062 1.276 0.263 2.149 0.56 2.913 0.308 0.786 0.716 1.458 1.385 2.124 0.666 0.666 1.335 1.078 2.121 1.385 0.767 0.297 1.637 0.498 2.914 0.557 1.279 0.059 1.691 0.073 4.948 0.073 3.261 0 3.669-0.014 4.948-0.073s2.15-0.26 2.913-0.557c0.789-0.308 1.458-0.719 2.124-1.385 0.669-0.666 1.078-1.338 1.382-2.124 0.3-0.764 0.501-1.637 0.56-2.913 0.059-1.279 0.073-1.688 0.073-4.945 0-3.261-0.014-3.67-0.073-4.949zM23.846 9.595c0-0.798-0.646-1.442-1.441-1.442s-1.442 0.644-1.442 1.442c0 0.795 0.647 1.439 1.442 1.439s1.441-0.644 1.441-1.439zM11.999 16.002c0 2.208 1.791 3.996 3.999 3.996s4.002-1.789 4.002-3.996c0-2.212-1.794-4.002-4.002-4.002s-3.999 1.791-3.999 4.002zM9.839 16.002c0-3.404 2.756-6.166 6.16-6.166s6.163 2.762 6.163 6.166c0 3.401-2.759 6.16-6.163 6.16s-6.16-2.759-6.16-6.16z"></path>
</symbol>
<symbol id="icon-YouTube" viewBox="0 0 32 32">
<path fill="#d9d9d9" style="fill: var(--color1, #d9d9d9)" d="M16 5.333c-13.104 0-13.333 1.165-13.333 10.267s0.229 10.267 13.333 10.267c13.104 0 13.333-1.165 13.333-10.267s-0.229-10.267-13.333-10.267zM20.273 16.045l-5.987 2.795c-0.524 0.243-0.953-0.029-0.953-0.608v-5.264c0-0.577 0.429-0.851 0.953-0.608l5.987 2.795c0.524 0.245 0.524 0.645 0 0.891z"></path>
</symbol>
<symbol id="icon-Twitter" viewBox="0 0 32 32">
<path fill="#d9d9d9" style="fill: var(--color1, #d9d9d9)" d="M29.333 7.899c-0.981 0.435-2.036 0.729-3.142 0.861 1.13-0.677 1.997-1.749 2.406-3.027-1.057 0.627-2.228 1.082-3.474 1.328-0.998-1.063-2.42-1.728-3.994-1.728-3.021 0-5.471 2.45-5.471 5.471 0 0.429 0.049 0.846 0.142 1.247-4.547-0.228-8.578-2.406-11.277-5.716-0.471 0.808-0.741 1.748-0.741 2.75 0 1.898 0.966 3.573 2.434 4.554-0.897-0.028-1.74-0.275-2.478-0.684-0 0.023-0 0.046-0 0.069 0 2.651 1.886 4.862 4.389 5.365-0.459 0.125-0.942 0.192-1.441 0.192-0.353 0-0.695-0.034-1.029-0.098 0.696 2.174 2.717 3.755 5.111 3.799-1.872 1.467-4.231 2.342-6.795 2.342-0.442 0-0.877-0.026-1.305-0.076 2.421 1.552 5.297 2.458 8.387 2.458 10.063 0 15.566-8.337 15.566-15.566 0-0.237-0.005-0.473-0.016-0.708 1.069-0.771 1.997-1.735 2.73-2.832z"></path>
</symbol>
<symbol id="icon-Facebook" viewBox="0 0 32 32">
<path fill="#d9d9d9" style="fill: var(--color1, #d9d9d9)" d="M29.333 16.081c0-7.408-5.97-13.414-13.333-13.414s-13.333 6.006-13.333 13.414c0 6.695 4.875 12.245 11.25 13.252v-9.374h-3.386v-3.878h3.386v-2.956c0-3.362 1.991-5.22 5.036-5.22 1.459 0 2.985 0.262 2.985 0.262v3.301h-1.682c-1.656 0-2.173 1.034-2.173 2.096v2.516h3.698l-0.591 3.878h-3.107v9.374c6.375-1.006 11.25-6.555 11.25-13.252z"></path>
</symbol>
<symbol id="expandMapIcon" viewBox="0 0 18 18" fill="none">
            <g clip-path="url(#clip0_2_5952)">
                <mask id="mask0_2_5952" style="mask-type:luminance" width="18" height="18" maskUnits="userSpaceOnUse">
                    <path fill="#fff" d="M0 18h18V0H0z"></path>
                </mask>
                <g fill="var(--color0, #00798a)" mask="url(#mask0_2_5952)">
                    <path d="M0 17.2503c0 0.1989 0.079 0.3897 0.2197 0.5303 0.1406 0.1407 0.3314 0.2197 0.5303 0.2197h4.875c0.1483 0 0.2933-0.044 0.4166-0.1264 0.1233-0.0825 0.2194-0.1996 0.2762-0.3366 0.0567-0.137 0.0716-0.2878 0.0426-0.4333-0.0289-0.1454-0.1003-0.2791-0.2052-0.384l-1.6417-1.6447c-0.0175-0.0174-0.0313-0.0381-0.0408-0.0609-94e-4-0.0228-0.0143-0.0472-0.0143-0.0719 0-0.0246 49e-4-0.049 0.0143-0.0718 95e-4-0.0228 0.0233-0.0435 0.0408-0.0609l3.2745-3.2707c0.1758-0.1759 0.2746-0.4144 0.2746-0.663 0-0.2487-0.0988-0.4872-0.2746-0.6631-0.1758-0.1758-0.4143-0.2745-0.663-0.2745-0.2487 0-0.4872 0.0987-0.663 0.2745l-3.2745 3.2745c-0.0174 0.0175-0.0381 0.0314-0.0609 0.0408-0.0228 95e-4-0.0472 0.0143-0.0718 0.0143-0.0247 0-0.0491-48e-4-0.0719-0.0143-0.0228-94e-4-0.0435-0.0233-0.0609-0.0408l-1.6417-1.6417c-0.0696-0.0698-0.1522-0.1252-0.2432-0.163-0.091-0.0378-0.1886-0.0574-0.2871-0.0575-0.0986-3e-4-0.1962 0.0191-0.2872 0.057-0.1371 0.0568-0.2542 0.153-0.3365 0.2763C0.0439 12.082 0 12.227 0 12.3753z"></path>
                    <path d="M17.2501 0h-4.875c-0.1483 0-0.2933 0.044-0.4166 0.1264-0.1233 0.0825-0.2194 0.1996-0.2762 0.3366-0.0567 0.137-0.0716 0.2878-0.0426 0.4333 0.0289 0.1454 0.1003 0.2791 0.2052 0.384l1.6417 1.6447c0.0174 0.0173 0.0313 0.038 0.0407 0.0607 95e-4 0.0227 0.0143 0.0471 0.0143 0.0717 0 0.0246-48e-4 0.0489-0.0143 0.0716-94e-4 0.0228-0.0233 0.0434-0.0407 0.0608l-3.2745 3.2745c-0.0871 0.087-0.1561 0.1904-0.2033 0.3041-0.047 0.1138-0.0713 0.2357-0.0713 0.3589 0 0.1231 0.0243 0.245 0.0713 0.3588 0.0472 0.1137 0.1162 0.2171 0.2033 0.3041 0.0871 0.0871 0.1904 0.1562 0.3042 0.2033 0.1137 0.0471 0.2357 0.0714 0.3588 0.0714 0.1231 0 0.2451-0.0243 0.3588-0.0714 0.1138-0.0471 0.2171-0.1162 0.3042-0.2032l3.2745-3.2761c0.0174-0.0174 0.0381-0.0313 0.0609-0.0407 0.0228-95e-4 0.0472-0.0143 0.0718-0.0143 0.0247 0 0.0491 48e-4 0.0719 0.0143 0.0228 94e-4 0.0435 0.0233 0.0609 0.0407l1.6417 1.6418c0.105 0.1049 0.2387 0.1763 0.3842 0.2052 0.1455 0.0289 0.2964 0.014 0.4334-0.0428 0.1371-0.0569 0.2542-0.1531 0.3366-0.2765 0.0823-0.1235 0.1262-0.2685 0.1261-0.4169V0.75c0-0.1989-0.079-0.3897-0.2197-0.5303C17.6398 0.079 17.449 0 17.2501 0z"></path>
                </g>
            </g>
            <defs>
                <clipPath id="clip0_2_5952">
                    <rect fill="#fff" width="18" height="18"></rect>
                </clipPath>
            </defs>
        </symbol>
        <symbol id="Button" viewBox="0 0 15 15" fill="none">
            <rect fill="var(--color2, #fff)" width="15" height="15"></rect>
            <path fill="var(--color1, #00aecd)" d="M3.25 3.25l8.5 8.5zM11.75 3.25l-8.5 8.5z"></path>
            <path stroke-width="1.25" stroke="var(--color1, #00aecd)" d="M3.25 3.25l8.5 8.5M11.75 3.25l-8.5 8.5"></path>
        </symbol>
       <symbol id="down" viewBox="0 0 14 14" fill="none">
            <path stroke-width="1.16667" stroke="currentColor" fill="currentColor" clip-rule="evenodd" d="M1.4406 4.3576c0.1709-0.1708 0.4479-0.1708 0.6188 0l4.8375 4.8376c0.057 0.0569 0.1492 0.0569 0.2062 0l4.8376-4.8376c0.1708-0.1708 0.4478-0.1708 0.6186 0 0.1709 0.1709 0.1709 0.4479 0 0.6188L7.7218 9.8139c-0.3986 0.3986-1.045 0.3986-1.4436 0L1.4406 4.9764c-0.1708-0.1709-0.1708-0.4479 0-0.6188z" fill-rule="evenodd"></path>
        </symbol>
    </defs>
</svg>