<svg aria-hidden="true" style="position: absolute; width: 0; height: 0; overflow: hidden;" version="1.1" xmlns="http://www.w3.org/2000/svg" xmlns:xlink="http://www.w3.org/1999/xlink">
    <defs>
        <symbol id="icon-language" viewBox="0 0 32 32">
<path d="M16 27.334c1.231 0 2.686-0.842 3.942-2.934 0.367-0.612 0.698-1.305 0.982-2.066h-9.848c0.284 0.761 0.615 1.454 0.982 2.066 1.255 2.092 2.711 2.934 3.942 2.934zM10.479 20.334h11.042c0.306-1.326 0.479-2.786 0.479-4.333s-0.173-3.008-0.479-4.333h-11.042c-0.306 1.325-0.479 2.786-0.479 4.333s0.173 3.008 0.479 4.333zM23.042 22.334c-0.456 1.406-1.060 2.661-1.776 3.705 1.666-0.876 3.087-2.154 4.135-3.705h-2.358zM26.476 20.334c0.553-1.335 0.858-2.799 0.858-4.333s-0.305-2.998-0.858-4.333h-2.907c0.28 1.359 0.432 2.816 0.432 4.333s-0.152 2.975-0.432 4.333h2.907zM8.432 20.334c-0.28-1.359-0.432-2.816-0.432-4.333s0.152-2.975 0.432-4.333h-2.907c-0.553 1.335-0.858 2.799-0.858 4.333s0.305 2.998 0.858 4.333h2.907zM6.601 22.334c1.047 1.551 2.469 2.83 4.135 3.705-0.716-1.044-1.32-2.299-1.776-3.705h-2.358zM11.076 9.667h9.848c-0.284-0.761-0.615-1.454-0.982-2.066-1.256-2.092-2.711-2.934-3.942-2.934s-2.686 0.842-3.942 2.934c-0.367 0.612-0.698 1.305-0.982 2.066zM23.042 9.667h2.358c-1.047-1.551-2.469-2.83-4.135-3.705 0.716 1.045 1.32 2.299 1.776 3.705zM10.735 5.962c-1.666 0.876-3.087 2.154-4.135 3.705h2.358c0.456-1.406 1.060-2.661 1.776-3.705zM16 2.667c7.364 0 13.333 5.97 13.333 13.333s-5.97 13.333-13.333 13.333c-7.364 0-13.333-5.97-13.333-13.333s5.97-13.333 13.333-13.333z"></path>
</symbol>
        <symbol id="icon-searchWhite" viewBox="0 0 32 32">
<path fill="#fff" style="fill: var(--color1, #fff)" d="M22 14c0-4.418-3.582-8-8-8s-8 3.582-8 8c0 4.418 3.582 8 8 8s8-3.582 8-8zM24 14c0 5.523-4.477 10-10 10s-10-4.477-10-10c0-5.523 4.477-10 10-10s10 4.477 10 10zM21.96 23.374l-0.684-0.684c0.512-0.429 0.985-0.902 1.414-1.414l4.684 4.684c0.391 0.391 0.391 1.024 0 1.414s-1.024 0.391-1.414 0l-4-4z"></path>
</symbol>
<symbol id="icon-search" viewBox="0 0 32 32">
<path fill="#707070" style="fill: var(--color2, #707070)" d="M22 14c0-4.418-3.582-8-8-8s-8 3.582-8 8c0 4.418 3.582 8 8 8s8-3.582 8-8zM24 14c0 5.523-4.477 10-10 10s-10-4.477-10-10c0-5.523 4.477-10 10-10s10 4.477 10 10zM21.96 23.374l-0.684-0.684c0.512-0.429 0.985-0.902 1.414-1.414l4.684 4.684c0.391 0.391 0.391 1.024 0 1.414s-1.024 0.391-1.414 0l-4-4z"></path>
</symbol>
<symbol id="icon-mainSvg" viewBox="0 0 89 32">
<path fill="#f64060" style="fill: var(--color3, #f64060)" d="M88.786 18.693c-0.012-0.126-0.042-0.249-0.088-0.366-0.296-0.77-1.643-0.052-2.103 0.141-0.828 0.347-1.775 0.805-2.692 0.542-0.254-0.073-0.179-0.289 0-0.399 0.090-0.054 2.444-1.386 3.136-4.338 1.109-4.722-2.293-6.036-3.636-6.195-1.365-0.162-2.887 0.049-3.528 0.307-1.818 0.73-2.293 2.354-2.418 3.327-0.172 1.338-0.192 3.672-0.358 4.722-0.109 0.692-0.624 1.742-1.638 1.642-1.957-0.193-2.856-0.944-2.794-2.178 0.043-0.867 0.031-1.040 0.304-2.963 0.234-1.648 0.382-2.041 0.382-2.418 0-1.079-1.45-1.297-1.935-0.811-0.374 0.375-0.468 1.141-0.562 2.433-0.088 1.215-0.274 2.796-0.515 3.76-0.374 1.502-0.525 1.611-0.866 2.041-0.709 0.893-2.021 0.616-2.661 0.007-0.376-0.358-0.427-0.676-0.354-1.728s0.245-2.885 0.486-4.796c0.21-1.672 0.066-1.923-0.448-2.392-0.478-0.437-2.307-0.372-3.154-0.372-1.311 0-1.233 0.624-1.319 2.752-0.038 0.929-0.081 2.338-0.174 3.429-0.15 1.776-3.54 3.112-5.098 3.032-1.615-0.083-1.77-3.098-1.872-3.8-0.103-0.701-0.144-6.752 0.030-6.957 0.124-0.144 1.096-0.254 2.204-0.471 2.453-0.48 2.806-0.795 2.809-1.563 0.002-0.377-0.022-0.904-0.44-1.046-0.245-0.083-0.88-0.178-1.722-0.277-2.429-0.286-2.772-0.198-2.785-0.506-0.023-0.539 0.028-1.577-0.015-1.985-0.106-1.005-1.283-1.342-2.609-1.254-0.262 0.017-0.624 0.102-0.653 0.452s-0.026 0.622-0.069 1.216c-0.094 1.321-0.12 1.464-0.632 1.462-0.456-0.002-4.249-0.338-4.978-0.104s-0.7 0.73-0.758 0.979c-0.058 0.248 0.072 1.738 0.146 2.381s0.214 1.517 0.301 1.648c0.088 0.132 0.361 0.505 1.123 0.41 2.587-0.324 4.312-0.715 4.663-0.802s0.39-0.132 0.394 0.146c0.002 0.158 0.067 3.317 0.078 4.255 0.018 1.605 0.29 6.253-4.035 6.974-1.799 0.3-3.485-0.224-4.252-1.070-0.435-0.48-0.222-0.542-0.030-0.854 0.291-0.474 2.721-3.329 0.685-6.291-1.201-1.747-4.080-1.885-5.126-1.432-0.81 0.351-1.465 1.44-1.592 2.768-0.39 4.096 1.953 6.629 2.045 6.785 0.109 0.187-0.301 0.79-1.733 1-1.92 0.282-4.867-2.034-4.792-2.336 0.038-0.144 1.343-2.282 1.374-4.349 0.010-0.703-0.222-1.629-0.702-2.564s-1.997-2.378-3.636-2.061c-3.859 0.744-3.419 4.557-3.152 5.597 0.555 2.152 1.855 4.051 2.067 4.431 0.289 0.516-8.165 3.871-8.492 0.73-0.326-3.113 4.296-9.827 3.932-12.431-0.328-2.346-1.905-2.837-3.277-2.861-1.333-0.024-1.685 0.189-2.137 0.451-0.26 0.151-0.634 0.45-1.152-0.044-0.345-0.329-0.573-0.559-0.938-0.851-0.185-0.148-0.481-0.336-0.977-0.409s-1.137 0-1.546 0.175c-0.408 0.176-0.729 0.482-1.065 0.774s-1.186 1.247-1.979 0.895c-0.344-0.153-1.509-0.736-2.349-1.1-1.623-0.704-3.964 0.436-4.806 1.937-1.255 2.233-3.731 11.007-4.105 12.164-0.842 2.598 1.064 4.717 3.636 4.595 1.086-0.052 1.81-0.45 2.497-1.701 0.397-0.722 4.124-10.477 4.401-10.944 0.201-0.34 0.872-0.787 1.44-0.496 0.569 0.293 0.682 0.902 0.598 1.476-0.136 0.928-2.764 6.88-2.865 7.552-0.172 1.145 0.371 1.782 1.557 1.845 0.813 0.042 1.623-0.25 2.266-1.465 0.36-0.679 4.504-8.998 4.872-9.553 0.403-0.61 0.728-0.81 1.137-0.789 0.319 0.016 0.829 0.098 0.701 1.055-0.125 0.938-3.457 7.042-3.808 8.536-0.53 2.267 0.921 5.316 4.808 5.456 1.931 0.070 6.401-0.773 8.919-2.685 0.914-0.694 0.673-0.754 1.242-0.249 0.82 0.727 2.341 1.751 3.84 1.751 3.402 0 5.887-2.128 5.999-2.205 0.018-0.012 0.039-0.017 0.061-0.015s0.041 0.013 0.055 0.029c0.206 0.224 2.316 1.401 3.794 1.45 3.519 0.116 5.603-1.84 6.39-2.761 0.433-0.507 0.837-1.037 1.209-1.589 0.011-0.016 0.025-0.029 0.041-0.038s0.035-0.015 0.054-0.017 0.038 0.002 0.056 0.009c0.018 0.007 0.033 0.018 0.046 0.032 0.21 0.232 1.797 3.153 4.95 2.75 1.758-0.225 4.373-1.711 4.556-1.912 0.009-0.011 0.021-0.018 0.035-0.023s0.028-0.005 0.041-0.003c0.014 0.003 0.027 0.009 0.037 0.019s0.018 0.021 0.023 0.035c0.092 0.254 0.494 1.688 2.106 2.828 1.321 0.935 3.865 1.122 4.994 0.501 0.936-0.515 1.311-0.845 1.966-1.501 0.282-0.282 0.71-0.568 1.483-0.404 0.864 0.183 3.147 0.588 3.292 0.657 0.164 0.078 0.19 0.376 0.141 0.688-0.078 0.491-0.264 2.213-0.453 3.82s-0.795 6.969 0.64 7.168c0.867 0.12 1.62-0.702 1.819-1.505 0.499-2.013 0.59-4.28 0.918-6.224 0.392-2.314 0.547-2.963 0.688-3.221 0.117-0.214 0.117-0.164 1.733-0.026 1.12 0.096 2.029 0.252 3.378 0.063 1.118-0.157 3.413-1.005 3.29-2.381zM32.874 13.492c-0.054 0.758-0.248 1.237-0.649 1.935-0.25 0.435-0.509 0.11-0.66-0.106-0.216-0.309-1.32-2.995-0.477-3.549 0.238-0.156 0.709-0.246 1.050-0.054s0.546 0.468 0.64 0.777c0.096 0.314 0.131 0.49 0.096 0.997zM43.347 13.882c-0.098 0.872-0.468 1.366-0.604 1.549-0.241 0.323-0.338 0.45-0.568 0.216-0.187-0.19-0.887-1.616-0.988-2.556-0.055-0.505 0.085-1.228 0.509-1.397 0.446-0.178 0.898-0.098 1.216 0.318 0.498 0.654 0.505 1.251 0.435 1.871zM81.351 17.704c-0.526 0.216-0.754 0.084-0.724-0.785 0.006-0.187 0.85-4.549 2.464-5.34 0.457-0.224 0.921-0.214 1.243 0.144 0.608 0.678 0.448 1.722-0.010 2.673-0.662 1.382-2.251 3.011-2.973 3.308z"></path>
</symbol>
<symbol id="irl_event" viewBox="0 0 379 269" fill="none">
            <g stroke="var(--color0, #00455d)" stroke-linejoin="round" clip-path="url(#clip0_2_1945)" clip-rule="evenodd">
                <mask id="mask0_2_1945" style="mask-type:luminance" stroke="none" stroke-linejoin="miter" width="379" height="269" maskUnits="userSpaceOnUse">
                    <path fill="#fff" d="M0 0h378.842v269H0z"></path>
                </mask>
                <g stroke="none" stroke-linejoin="miter" mask="url(#mask0_2_1945)">
                    <g opacity="0.212">
                        <path fill="var(--color8, #e6a386)" clip-rule="evenodd" d="M300.165 196.605c-8.022 13.579-17.061 23.199-28.232 31.023-8.177 5.729-16.944 10.259-26.243 13.651-9.525 3.472-19.412 5.892-29.491 7.422-14.636 2.222-29.335 3.051-44.161 2.396-16.487-0.727-32.461-3.869-47.662-10.293-5.581-2.36-11.162-5.015-15.987-8.918-3.65-2.953-7.805-5.367-11.0989-8.654-4.792-4.78-9.357-9.879-13.404-15.296-8.142-10.891-12.796-23.303-14.465-36.716-0.915-7.339-1.859-14.744-1.812-22.107 0.051-7.638 1.199-15.269 2.025-22.886 0.697-6.451 1.505-12.892 2.475-19.306 1.419-9.378 2.461-18.865 4.69-28.053 2.838-11.701 5.761-23.499 12.022-34.017 6.068-10.197 13.8809-18.893 24.2739-24.752 9.099-5.129 19.111-7.318 29.733-7.168 11.735 0.164 22.372 3.931 32.289 9.611 7.244 4.149 13.887 9.343 20.051 15.074 5.079 4.72 10.094 9.56 15.576 13.778 5.771 4.441 11.538 8.982 18.151 12.233l28.074 13.966c8.169 4.193 15.642 9.454 22.779 15.235 5.855 4.741 10.86 10.257 15.021 16.43 7.823 11.608 13.605 24.013 14.739 38.248 0.675 8.464 1.072 16.86-0.812 25.17-0.917 4.049-2.021 8.087-3.456 11.974-1.747 4.733-3.932 9.301-5.075 11.956z" fill-rule="evenodd"></path>
                    </g>
                </g>
                <path stroke-width="3.934" stroke="var(--color6, #fa6666)" d="M304.349 175.292H96.4616l-31.029 37.382H277.791z"></path>
                <path stroke-width="3.934" stroke="var(--color6, #fa6666)" stroke-linecap="round" d="M104.748 175.292l11.089 36.372M157.169 175.292l12.097 39.403M209.589 175.292l14.113 39.403M264.026 175.292l11.089 37.382"></path>
                <path stroke-width="7.868" stroke="var(--color6, #fa6666)" stroke-linecap="round" d="M290.235 153.065l44.356 61.63"></path>
                <path stroke-width="1.868" stroke-linecap="round" d="M294.248 169.23h6.3c5.439 0 9.849-2.575 9.849-7.839s-4.41-9.337-9.849-9.337h-15.353"></path>
                <path stroke-width="1.868" stroke-linecap="round" d="M294.074 151.044h-2.316-6.563l44.979 61.5c0 0 2.124 4.532 4.44 2.743s0.193-4.471-2.703-7.92-39.801-55.923-39.801-55.923"></path>
                <path stroke-width="1.868" stroke-linecap="round" d="M306.366 180.036l-27.52 37.434H66.2306c-4.187-0.576-2.463-3.189-2.463-3.189l32.762-41.01H301.546"></path>
                <path stroke-width="1.868" d="M299.308 178.323h-30.243l8.803 31.32zM215.637 178.323l9.733 32.331h46.72l-9.247-32.331zM161.2 178.323l10.425 32.074 47.036 0.257-10.425-32.331z"></path>
                <path stroke-width="1.868" stroke="var(--color2, #353e48)" d="M107.772 178.323l10.112 32.331h47.349l-10.111-32.331z"></path>
                <path stroke-width="1.705" d="M70.4727 212.674l26.574-34.351h5.2573l9.501 34.351z"></path>
                <path stroke-width="1.868" fill="var(--color6, #fa6666)" d="M99.7076 215.2c0 19.809-15.797 35.867-35.283 35.867s-35.283-16.058-35.283-35.867 15.797-35.867 35.283-35.867 35.283 16.058 35.283 35.867zM369.875 215.2c0 19.809-15.797 35.867-35.283 35.867s-35.283-16.058-35.283-35.867 15.797-35.867 35.283-35.867 35.283 16.058 35.283 35.867z" fill-rule="evenodd"></path>
                <path stroke-width="1.868" d="M78.5372 214.695c0 7.254-5.8671 13.134-13.1051 13.134s-13.105-5.88-13.105-13.134 5.868-13.134 13.105-13.134 13.1051 5.88 13.1051 13.134z"></path>
                <path stroke="none" fill="var(--color1, #97cad1)" d="M124.91 214.19c2e-3 2.542-1.005 4.982-2.801 6.782-1.796 1.799-4.233 2.812-6.776 2.816-2.545 0-4.986-1.011-6.786-2.811s-2.812-4.242-2.812-6.787c0-2.546 1.012-4.987 2.812-6.787s4.241-2.811 6.786-2.811c2.543 3e-3 4.98 1.016 6.776 2.816s2.803 4.239 2.801 6.782z"></path>
                <path stroke-width="1.868" d="M124.91 214.19c2e-3 2.542-1.005 4.982-2.801 6.782-1.796 1.799-4.233 2.812-6.776 2.816-2.545 0-4.986-1.011-6.786-2.811s-2.812-4.242-2.812-6.787c0-2.546 1.012-4.987 2.812-6.787s4.241-2.811 6.786-2.811c2.543 3e-3 4.98 1.016 6.776 2.816s2.803 4.239 2.801 6.782z"></path>
                <path stroke="none" fill="var(--color1, #97cad1)" d="M179.347 214.19c2e-3 2.542-1.006 4.982-2.802 6.782-1.795 1.799-4.233 2.812-6.775 2.816-2.546 0-4.987-1.011-6.787-2.811s-2.811-4.242-2.811-6.787c0-2.546 1.011-4.987 2.811-6.787s4.241-2.811 6.787-2.811c2.542 3e-3 4.98 1.016 6.775 2.816 1.796 1.8 2.804 4.239 2.802 6.782z"></path>
                <path stroke-width="1.868" d="M179.347 214.19c2e-3 2.542-1.006 4.982-2.802 6.782-1.795 1.799-4.233 2.812-6.775 2.816-2.546 0-4.987-1.011-6.787-2.811s-2.811-4.242-2.811-6.787c0-2.546 1.011-4.987 2.811-6.787s4.241-2.811 6.787-2.811c2.542 3e-3 4.98 1.016 6.775 2.816 1.796 1.8 2.804 4.239 2.802 6.782z"></path>
                <path stroke="none" fill="var(--color1, #97cad1)" d="M233.783 214.19c2e-3 2.542-1.006 4.982-2.802 6.782-1.795 1.799-4.233 2.812-6.775 2.816-5.289 0-9.576-4.297-9.576-9.598s4.287-9.598 9.576-9.598c2.542 3e-3 4.98 1.016 6.775 2.816 1.796 1.8 2.804 4.239 2.802 6.782z"></path>
                <path stroke-width="1.868" d="M233.783 214.19c2e-3 2.542-1.006 4.982-2.802 6.782-1.795 1.799-4.233 2.812-6.775 2.816-5.289 0-9.576-4.297-9.576-9.598s4.287-9.598 9.576-9.598c2.542 3e-3 4.98 1.016 6.775 2.816 1.796 1.8 2.804 4.239 2.802 6.782z"></path>
                <path stroke="none" fill="var(--color1, #97cad1)" d="M287.212 214.19c2e-3 2.542-1.005 4.982-2.801 6.782-1.796 1.799-4.233 2.812-6.776 2.816-2.545 0-4.987-1.011-6.787-2.811s-2.811-4.242-2.811-6.787c0-2.546 1.011-4.987 2.811-6.787s4.242-2.811 6.787-2.811c2.543 3e-3 4.98 1.016 6.776 2.816s2.803 4.239 2.801 6.782z"></path>
                <path stroke-width="1.868" d="M287.212 214.19c2e-3 2.542-1.005 4.982-2.801 6.782-1.796 1.799-4.233 2.812-6.776 2.816-2.545 0-4.987-1.011-6.787-2.811s-2.811-4.242-2.811-6.787c0-2.546 1.011-4.987 2.811-6.787s4.242-2.811 6.787-2.811c2.543 3e-3 4.98 1.016 6.776 2.816s2.803 4.239 2.801 6.782z"></path>
                <path stroke-width="1.868" stroke="var(--color2, #353e48)" d="M343.665 214.19c2e-3 2.542-1.005 4.982-2.801 6.782-1.796 1.799-4.233 2.812-6.776 2.816-2.545 0-4.987-1.011-6.787-2.811s-2.811-4.242-2.811-6.787c0-2.546 1.011-4.987 2.811-6.787s4.242-2.811 6.787-2.811c2.543 3e-3 4.98 1.016 6.776 2.816s2.803 4.239 2.801 6.782z"></path>
                <path stroke="none" fill="var(--color3, #0098ab)" d="M86.6393 99.5176l-9.109 48.0694c0 0 4.048 3.499 5.783 2.13s6.796-7.302 12.434-7.15l2.024 0.152c0 0-0.884-6.084 1.871-10.039 2.7547-3.955 15.1907-31.641-13.003-33.1624z" fill-rule="evenodd"></path>
                <path stroke="none" fill="var(--color7, #f6f7f8)" d="M102.728 169.372c13.184 8.041 12.135 5.37 13.783 9.039s15.581 22.14 15.581 22.14l7.94-7.178c0 0-19.776-31.477-42.5473-48.97 0 0-5.693-1.644-7.791 1.495s-5.843 6.28-9.139 5.532c0 0 0.45 7.327 22.1733 17.942z" fill-rule="evenodd"></path>
                <path stroke="none" fill="var(--color5, #efdecc)" d="M125.918 148.014c0 0 8.214-3.375 13.591-3.068s9.558-0.768 9.558-0.768 3.883-20.412-0.747-24.248l9.857-5.679c0 0-1.045-20.2574-16.129-26.8574 0 0-7.617 2.456-12.844 36.2194zM126.926 149.695c0 0 0.152 4.773 2.745 7.082s26.976 14.934 26.976 14.934 15.121 16.013 18.325 21.094 7.473 10.777 7.473 10.777l8.999-7.902c0 0-13.27-32.59-41.792-49.68 0 0-10.067-0.154-14.795 1.077s-7.931 2.618-7.931 2.618z" fill-rule="evenodd"></path>
                <path stroke="none" fill="var(--color3, #0098ab)" d="M184.186 146.68c0 0-1.816 6.945 0 10.261s28.376 23.403 28.376 23.403l7.108-12.092-16.647-20.477c0 0-3.741-2.386-5.612-1.095s-7.26 0.479-8.4-0.383-4.825 0.383-4.825 0.383z" fill-rule="evenodd"></path>
                <path stroke="none" fill="var(--color7, #f6f7f8)" d="M201.758 97.4971c0 0 9.282 5.7669 9.548 20.7639s1.611 17.689 1.611 17.689l2.721 3.706-4.332 4.368-5.123-2.499-1.539 7.498c0 0-2.502-3.408-6.157-3.242s-5.965 1.757-10.198 0-6.926-0.918-6.926-0.918z" fill-rule="evenodd"></path>
                <path stroke="none" fill="var(--color4, #fff)" d="M224.903 85.373l-3.52 3.021c0 0 1.387 2.913 0.107 4.748-1.134 1.625-2.24 4.072-4.373 4.356s-3.733 2.011-4.373 4.384 1.28 5.719 1.28 5.719l14.719-19.853z" fill-rule="evenodd"></path>
                <path stroke="none" fill="var(--color5, #efdecc)" d="M220.602 83.37c0 0-2.111 8.376-21.233 4.355-2.932-1.001-11.144 1.906-13.021 3.024s-8.681 1.331-9.854-3.024 4.01-5.362 5.113-5.362 4.623-2.683 2.16-5.591c-1.407-1.342 4.341-2.907 9.854-1.789s13.725-1.657 19.239-0.381 8.328 6.419 7.742 8.768z" fill-rule="evenodd"></path>
                <path stroke="none" fill="var(--color6, #fa6666)" d="M229.704 38.8984l-23.139 13.45 27.218 8.777z" fill-rule="evenodd"></path>
                <path stroke="none" fill="var(--color4, #fff)" d="M243.767 104.277c0 0-6.899 14.481-7.717 22.486s-3.275 27.313-3.275 27.313l23.271-3.767c0 0-1.637-5.298 0-9.419s5.262-17.306 5.262-17.306l-3.859-2.118 4.561-13.068c0 0-9.238-7.064-18.243-4.121z" fill-rule="evenodd"></path>
                <path stroke="none" fill="var(--color5, #efdecc)" d="M237.816 156.733c0 0 15.214 13.683 20.936 16.539l11.322-12.184-13.619-10.043z" fill-rule="evenodd"></path>
                <path stroke="none" fill="var(--color3, #0098ab)" d="M142.08 68.1972c0 0-0.915-9.23 6.954-11.673s14.183 5.837 14.183 5.837zM297.293 211.672l4.435 8.075c0 0 6.452-5.152 6.586-7.101s2.151-2.784 2.688-2.784 8.469-9.466 8.469-9.466-2.689-3.481-5.781-2.785-8.064 3.48-8.064 3.48-1.613 7.009-5.108 7.541z" fill-rule="evenodd"></path>
                <path stroke-width="1.868" stroke-linecap="round" d="M227.735 157.106l19.153 15.155"></path>
                <path stroke-width="1.705" stroke-linecap="round" d="M205.861 90.4238c0 0-3.081 7.225-5.991 7.403-2.397 5.0532-19.515 49.1802-19.515 49.1802s3.937-2.123 6.505-0.875 4.793 2.631 8.217 1.404 7.531-0.671 9.244 0.477l3.252-5.803"></path>
                <path stroke-width="1.868" stroke-linecap="round" d="M199.509 112.103l4.398 21.82c0.917 3.07 3.482 7.635 8.43 10.138s8.796 7.487 8.796 10.321 5.865 3.734 5.865 3.734 5.131-3.099-2.2-11.028-12.644-11.979-12.644-11.979 3.849-30.046-4.581-33.571M213.655 109.621l28.193-35.9437c0 0 0.181-2.719-3.638-2.155l-3.093-3.325c0 0-5.628 5.028-5.178 6.226s2.814 2.256 0.631 4.732-8.731 8.486-8.731 8.486 1.637 6.894-2 7.778-9.459 4.035-8.004 8.1917"></path>
                <path stroke-width="1.705" stroke-linecap="round" d="M221.686 82.3425c0 0 0-10.173-12.097-11.114M216.646 78.3015c0 0-0.713-4.837-11.765-3.927s-13.37 0.575-17.47-0.114M212.613 78.8655c0 0-5.928-1.519-9.241-0.098-2.093 1.244-8.893 0.131-12.729-1.087s-10.288 0.816-10.288 0.816M217.654 81.3315c0 0-3.86 3.75-23.51 0.917-9.47 0-13.789 3.124-13.789 3.124M218.662 85.3735c0 0-7.167 3.103-16.432 1.618s-13.811 0.402-13.811 0.402"></path>
                <path stroke="none" fill="var(--color3, #0098ab)" d="M243.636 195.499c0 0 6.984 10.466 9.312 10.201s6.079-6.094 9.054-5.829 4.785 0.687 5.044 1.469-12.416 18.668-13.452 18.404-5.173-7.552-5.173-7.552l-10.605-4.57 2.328-5.366"></path>
                <path stroke-width="1.868" stroke-linecap="round" d="M243.636 195.499c0 0 6.984 10.466 9.312 10.201s6.079-6.094 9.054-5.829 4.785 0.687 5.044 1.469-12.416 18.668-13.452 18.404-5.173-7.552-5.173-7.552l-10.605-4.57 2.328-5.366"></path>
                <path stroke="none" fill="var(--color4, #fff)" d="M222.694 150.539c0 1.953-1.579 3.536-3.528 3.536s-3.528-1.583-3.528-3.536 1.579-3.536 3.528-3.536 3.528 1.583 3.528 3.536z"></path>
                <path stroke-width="1.868" stroke-linejoin="bevel" d="M222.695 150.539c0 1.953-1.579 3.536-3.528 3.536s-3.528-1.583-3.528-3.536 1.579-3.536 3.528-3.536 3.528 1.583 3.528 3.536z"></path>
                <path stroke-width="1.868" stroke-linecap="round" d="M238.824 87.3942l-7.6-51.527c0 0-24.659 15.47-24.659 17.571s30.076 12.603 30.076 12.603M211.605 144.982l6.049-6.062"></path>
                <path stroke-width="1.705" stroke-linecap="round" d="M145.631 82.3418c0 0-8.995 8.568-12.047 22.3342l-8.674 41.793c0 0 5.943 2.056 14.136-1.902 4.497-1.901 13.813-1.109 13.813-1.109s-0.963-11.4 1.285-15.358"></path>
                <path stroke-width="1.705" stroke-linecap="round" d="M145.393 119.724l15.756-6.973c0 0 1.886-20.7624-17.085-29.3994M140.031 104.569l7.057 14.145M161.076 115.683c0 0 7.939 21.133 11.474 25.459s4.765 11.277 2.92 13.593-3.534 4.568-6.147 2.671-1.076-2.569-2.305-3.624 2.766-6.556 2.766-6.556-15.522-11.185-19.672-27.636"></path>
                <path stroke="none" fill="var(--color4, #fff)" d="M169.266 150.539c0 1.953-1.58 3.536-3.528 3.536s-3.529-1.583-3.529-3.536 1.58-3.536 3.529-3.536 3.528 1.583 3.528 3.536z"></path>
                <path stroke-width="1.705" stroke-linejoin="bevel" d="M169.265 150.539c0 1.953-1.58 3.536-3.528 3.536s-3.529-1.583-3.529-3.536 1.58-3.536 3.529-3.536 3.528 1.583 3.528 3.536z"></path>
                <path stroke-width="1.705" stroke-linecap="round" stroke-linejoin="bevel" d="M156.028 93.4554c0 0-3.293-10.099 2.888-11.358s10.205 1.279 10.349-9.859M128.941 72.2394c0 0 14.756-2.254 25.413-5.568s11.886-3.997 11.886-3.997-2.416-8.608-12.889-7.515-9.545 12.707-9.545 12.707"></path>
                <path stroke-width="1.705" stroke-linecap="round" d="M142.214 70.218c0 0-1.287 5.863 3.289 6.895 0 0-2.392 3.881 2.593 3.105M154.144 69.208c0 0-4.536 3.776 0 7.072"></path>
                <path stroke-width="1.868" stroke-linecap="round" d="M159.185 67.999c0 0-0.14 3.572 3.216 3.202s3.356-3.202 3.356-3.202 2.237 2.34 4.334 0.986 0.979-3.449 0-3.818"></path>
                <path stroke-width="1.705" stroke-linecap="round" d="M126.933 147.271c0 0-0.415 6.863 5.128 9.783s29.105 16.327 29.105 16.327l21.345 30.201 10.949-9.032c0 0-12.197-30.918-42.465-51.587M175.314 157.107l19.154 15.155"></path>
                <path stroke="none" fill="var(--color3, #0098ab)" d="M186.403 200.328l3.507 4.799c0 0-1.158 2.731-0.772 3.642s4.645 7.542 5.476 6.891 20.381-20.026 20.967-21.717-3.479-4.362-6.402-3.221l-13.478 5.302-1.087-2.416"></path>
                <path stroke-width="1.705" stroke="var(--color2, #353e48)" stroke-linecap="round" d="M186.403 200.327l3.507 4.799c0 0-1.158 2.731-0.772 3.642s4.645 7.542 5.476 6.891 20.381-20.026 20.967-21.717-3.479-4.362-6.402-3.221l-13.478 5.302-1.087-2.416"></path>
                <path stroke-width="1.705" stroke="var(--color2, #353e48)" stroke-linecap="round" d="M195.045 196.509c0 0 2.747 7.794-5.617 9.093"></path>
                <path stroke-width="1.705" stroke-linecap="round" d="M144.662 148.013l-2.615 6.055 11.539 7.113c2.45 1.376 6.271 1.454 7.615-0.782"></path>
                <path stroke-width="1.705" stroke-linecap="round" d="M147.088 149.022l-2.016 6.062"></path>
                <path stroke-width="1.868" stroke-linecap="round" stroke-linejoin="bevel" d="M94.1025 91.4346c0 0-8.2939 5.552-14.1369 50.5374-0.942 6.318-0.942 15.315 7.069 19.718l27.6164 15.123 16.964 23.737c0 0 7.729-4.785 9.425-8.997 0 0-18.284-28.523-37.699-44.604"></path>
                <path stroke-width="1.705" stroke-linecap="round" stroke-linejoin="bevel" d="M92.6967 98.5068c0 0 22.4683 8.1462 12.5453 27.6572 0 0-4.63 5.58-5.007 17.271 0 0-8.8523-0.935-10.5473 2.183s-4.776 6.079-8.011 5.3-5.239-1.715-6.163-0.779"></path>
                <path stroke-width="1.705" stroke-linecap="round" d="M88.6592 101.538c0 0-1.28 20.398 10.628 32.394 11.9078 11.996 17.1168 17.993 17.1168 17.993l-2.046 1.548 5.395 4.643c0 0 3.163-5.61-1.116-11.028s-18.372-24.958-18.372-24.958v-15.284"></path>
                <path stroke-width="1.868" stroke-linecap="round" stroke-linejoin="bevel" d="M89.6265 74.7053c0 0 2.736-8.842 11.4375-8.52 8.701 0.322 11.963 8.842 11.963 10.61s0.932 3.055 0.776 6.109-1.013 13.182-7.809 12.056c-6.7965-1.126-1.998 10.6187-1.998 10.6187M86.6025 78.3003c0 0 0.167 8.14 9.073 11.114M111.805 76.2963c0 0-6.258-0.636-9.073 6.0461"></path>
                <path stroke="none" fill="var(--color4, #fff)" d="M116.845 150.539c0 1.953-1.579 3.536-3.528 3.536s-3.528-1.583-3.528-3.536 1.58-3.536 3.528-3.536 3.528 1.583 3.528 3.536z"></path>
                <path stroke-width="1.705" stroke-linejoin="bevel" d="M116.845 150.539c0 1.953-1.579 3.536-3.528 3.536s-3.528-1.583-3.528-3.536 1.58-3.536 3.528-3.536 3.528 1.583 3.528 3.536z"></path>
                <path stroke-width="1.705" stroke-linecap="round" stroke-linejoin="bevel" d="M120.878 155.085l20.161 16.166"></path>
                <path stroke="none" fill="var(--color3, #0098ab)" d="M137.007 197.872l3.67 7.458c0 0-1.259 3.1 0.647 4.852 1.183 1.094 2.294 2.264 3.324 3.503l4.255-4.582c0 0 0.152-2.877 0.856-3.325s8.708-4.085 11.442-10.418c0 0-1.379-5.929-10.171-0.809-3.687 1.752-5.247 2.695-5.247 2.695s-1.986 6.198-3.546 7.141"></path>
                <path stroke-width="1.705" stroke="var(--color2, #353e48)" stroke-linecap="round" d="M137.007 197.872l3.67 7.458c0 0-1.259 3.1 0.647 4.852 1.183 1.094 2.294 2.264 3.324 3.503l4.255-4.582c0 0 0.152-2.877 0.856-3.325s8.708-4.085 11.442-10.418c0 0-1.379-5.929-10.171-0.809-3.687 1.752-5.247 2.695-5.247 2.695s-1.986 6.198-3.546 7.141"></path>
                <path stroke-width="1.705" stroke="var(--color2, #353e48)" stroke-linecap="round" d="M303.293 200.55c0 0 0.89 5.725-4.992 6.062"></path>
                <path stroke-width="1.868" stroke-linecap="round" d="M236.808 150.034c0 0 3.558-32.636 6.636-38.382s9.745-16.882 5.936-22.189-7.237-10.242-5.714-11.624 16.19-5.809 17.333-4.269 7.049 13.996 7.049 15.659 0.571 6.966-6.668 8.741c-2.857 1.39-2.285 7.549-2.285 7.549M247.896 104.569c0 0 12.903 1.516 25.998 13.987s27.731 24.176 28.501 26.503 2.888 11.221-3.659 8.506c-3.082-1.745-2.311-6.713-2.311-6.713l-46.987-30.643"></path>
                <path stroke-width="1.868" stroke-linecap="round" d="M263.017 124.776l-5.041 19.196M249.554 146.464c0 0 8.692-1.061 8.499 0s2.865 6.464 5.489 7.21 9.577 4.767 8.418 6.491-11.782 15.127-11.782 15.127-21.633-15.346-23.371-19.545M232.774 155.085l22.178-5.051M256.968 83.3521l7.057-2.021M259.981 86.3831c0 0-3.165 0.726-3.007 2.911s2.515 3.151 4.027 3.151"></path>
                <path stroke="none" fill="var(--color1, #97cad1)" d="M213.622 178.788l6.063 3.724c0 0 3.58 5.044 8.051 8.527s12.711 9.511 12.711 9.511l3.417-6.132-21.445-26.198zM264.026 171.393l13.334 8.342 19.322 28.898c0 0 8.303-1.515 6.254-6.957-2.156-5.724-16.43-30.283-16.43-30.283l-14.855-9.235z" fill-rule="evenodd"></path>
                <path stroke-width="1.868" stroke-linecap="round" d="M290.54 210.324c0 0 3.616-2.314 5.71 0s3.616 7.521 5.329 6.171 17.892-20.056 17.892-20.056-2.094-2.683-5.901-2.21-11.055 5.699-11.055 5.699l-14.64-27.808c-2.094-4.263-12.76-10.973-12.76-10.973M263.018 172.261l14.588 7.802 19.687 28.57M214.951 179.845c0 0 3.821 2.987 5.503 3.636 0 0 2.286 6.363 5.67 8.052 2.738 1.766 14.248 11.038 14.248 11.038l3.492-6.623c0 0-27.679-39.738-34.275-43.894M184.055 144.982c0 0-2.364 10.087 1.749 14.659s26.865 20.703 26.865 20.703l10.025-12.066"></path>
            </g>
            <defs>
                <clipPath id="clip0_2_1945">
                    <rect fill="#fff" width="379" height="269"></rect>
                </clipPath>
            </defs>
        </symbol>
        <symbol id="icon-link" viewBox="0 0 32 32">
<path fill="#00798a" style="fill: var(--color1, #00798a)" d="M19.638 4.552c1.041-1.041 2.73-1.041 3.771 0l1.886 1.886c1.042 1.041 1.042 2.73 0 3.771l-1.886 1.886-5.657-5.657 1.886-1.886zM16.809 7.381l5.657 5.657-10.923 10.923c-0.25 0.25-0.589 0.39-0.943 0.39h-4.438c-0.368 0-0.667-0.298-0.667-0.667v-4.438c0-0.354 0.14-0.693 0.391-0.943l10.923-10.923zM6.334 26c-0.552 0-1 0.448-1 1s0.448 1 1 1h19.333c0.552 0 1-0.448 1-1s-0.448-1-1-1h-19.333z"></path>
</symbol>
<symbol id="icon-online" viewBox="0 0 32 32">
<path fill="#707070" style="fill: var(--color1, #707070)" d="M3.808 5.191c-1.433 0-2.595 1.162-2.595 2.595v15.571c0 1.433 1.162 2.595 2.595 2.595h12.976c1.433 0 2.595-1.162 2.595-2.595v-3.65c0-0.104 0.116-0.166 0.202-0.108l5.566 3.711c0.862 0.575 2.017-0.043 2.017-1.080v-13.317c0-1.036-1.155-1.655-2.017-1.080l-5.566 3.711c-0.086 0.057-0.202-0.004-0.202-0.108v-3.65c0-1.433-1.162-2.595-2.595-2.595h-12.976z"></path>
</symbol>
<symbol id="icon-ok" viewBox="0 0 32 32">
<path fill="#707070" style="fill: var(--color1, #707070)" d="M16 27.334c-6.259 0-11.333-5.074-11.333-11.333s5.074-11.333 11.333-11.333c6.259 0 11.333 5.074 11.333 11.333s-5.074 11.333-11.333 11.333zM16 29.334c7.364 0 13.333-5.97 13.333-13.333s-5.97-13.333-13.333-13.333c-7.364 0-13.333 5.97-13.333 13.333s5.97 13.333 13.333 13.333z"></path>
<path fill="#707070" style="fill: var(--color1, #707070)" d="M24.707 11.293c0.391 0.39 0.391 1.024 0 1.414l-9.252 9.252c-1.172 1.172-3.071 1.172-4.243 0l-3.919-3.919c-0.391-0.39-0.391-1.024 0-1.414s1.024-0.391 1.414 0l3.919 3.919c0.39 0.391 1.024 0.391 1.414 0l9.253-9.252c0.391-0.391 1.024-0.391 1.414 0z"></path>
</symbol>
<symbol id="icon-date" viewBox="0 0 32 32">
<path fill="#707070" style="fill: var(--color1, #707070)" d="M25.333 7.333c0.368 0 0.667 0.298 0.667 0.667v17.333c0 0.368-0.299 0.667-0.667 0.667h-18.667c-0.368 0-0.667-0.299-0.667-0.667v-17.333c0-0.368 0.298-0.667 0.667-0.667h18.667zM6.667 5.333c-1.473 0-2.667 1.194-2.667 2.667v17.333c0 1.473 1.194 2.667 2.667 2.667h18.667c1.473 0 2.667-1.194 2.667-2.667v-17.333c0-1.473-1.194-2.667-2.667-2.667h-18.667z"></path>
<path fill="#707070" style="fill: var(--color1, #707070)" d="M8 4.001c0-0.736 0.597-1.333 1.333-1.333s1.333 0.597 1.333 1.333v1.333c0 0.736-0.597 1.333-1.333 1.333s-1.333-0.597-1.333-1.333v-1.333z"></path>
<path fill="#707070" style="fill: var(--color1, #707070)" d="M21.333 4.001c0-0.736 0.597-1.333 1.333-1.333s1.333 0.597 1.333 1.333v1.333c0 0.736-0.597 1.333-1.333 1.333s-1.333-0.597-1.333-1.333v-1.333z"></path>
<path fill="#707070" style="fill: var(--color1, #707070)" d="M24 11.667c0 0.552-0.448 1-1 1h-14c-0.552 0-1-0.448-1-1s0.448-1 1-1h14c0.552 0 1 0.448 1 1z"></path>
</symbol>
    </defs>
</svg>
